<svg width="29" height="25" viewBox="0 0 29 25" fill="none" xmlns="http://www.w3.org/2000/svg">
<path d="M13.1197 18.918C13.1197 17.4147 12.7268 16.154 11.9409 15.1307C11.384 14.4268 10.6289 13.9639 9.67398 13.7435C8.7344 13.5248 7.84607 13.5095 7.04315 13.6957C6.76982 12.0728 7.21398 10.3542 8.34148 8.53309C9.46898 6.71371 10.9296 5.34363 12.7114 4.42796L10.0105 0.541504C8.64386 1.218 7.34552 2.07559 6.14969 3.11255C4.93677 4.1495 3.86052 5.34192 2.90386 6.6898C1.94719 8.03767 1.22969 9.55979 0.768441 11.2852C0.307191 13.0106 0.179066 14.7702 0.399441 16.581C0.686441 18.9727 1.45861 20.886 2.71594 22.304C3.97157 23.7407 5.53811 24.4582 7.41044 24.4582C9.05898 24.4582 10.4274 23.9628 11.5104 22.9583C12.5833 21.9743 13.1163 20.6264 13.1163 18.9129L13.1197 18.918ZM28.7065 18.918C28.7065 17.4147 28.3136 16.154 27.5278 15.1307C26.9709 14.4132 26.2124 13.9485 25.2608 13.735C24.3041 13.5231 23.4278 13.5129 22.63 13.6974C22.3566 12.0915 22.7837 10.3661 23.9146 8.53821C25.0421 6.72738 26.4994 5.36071 28.2811 4.43821L25.5871 0.541504C24.2204 1.218 22.9306 2.07559 21.7263 3.11255C20.5023 4.16487 19.4153 5.36668 18.4907 6.6898C17.5409 8.03938 16.8336 9.55979 16.3724 11.2852C15.9056 13.0096 15.7797 14.8085 16.0016 16.581C16.2852 18.9727 17.054 20.886 18.3079 22.304C19.5601 23.7287 21.1215 24.4428 22.9939 24.4428C24.6458 24.4428 26.0142 23.9474 27.0973 22.9446C28.1684 21.9606 28.7065 20.6127 28.7065 18.8993V18.918Z" fill="#EC3A4C"/>
</svg>
