<svg width="20" height="20" viewBox="0 0 20 20" fill="none" xmlns="http://www.w3.org/2000/svg">
<path d="M16.5532 7.05417C16.6704 6.64264 16.6959 6.21037 16.6276 5.78793C16.5594 5.36549 16.3992 4.9632 16.1583 4.60952C15.9174 4.25583 15.6018 3.9594 15.2337 3.74118C14.8656 3.52296 14.4541 3.38828 14.0282 3.34667C13.8573 2.85635 13.5382 2.43128 13.1151 2.13029C12.692 1.82931 12.1858 1.66729 11.6665 1.66667C11.0495 1.66876 10.4553 1.90048 9.99984 2.31667C9.54432 1.90048 8.95018 1.66876 8.33317 1.66667C7.249 1.66667 6.32484 2.35917 5.979 3.34584C5.55236 3.3864 5.13988 3.52036 4.77081 3.73819C4.40174 3.95603 4.08513 4.25242 3.84344 4.60633C3.60174 4.96024 3.44089 5.363 3.3723 5.78603C3.3037 6.20907 3.32903 6.64202 3.4465 7.05417C2.91153 7.3388 2.46359 7.76294 2.1502 8.28158C1.83681 8.80023 1.66967 9.39404 1.6665 10C1.6665 10.8958 2.02317 11.7383 2.64317 12.36C2.54831 12.6758 2.50002 13.0036 2.49984 13.3333C2.49984 14.9642 3.6765 16.325 5.25484 16.6117C5.48654 17.1238 5.8607 17.5584 6.33265 17.8637C6.8046 18.1689 7.35443 18.332 7.9165 18.3333C8.73234 18.3333 9.46984 17.9942 9.99984 17.4508C10.2704 17.7299 10.5941 17.9518 10.952 18.1034C11.3099 18.255 11.6945 18.3332 12.0832 18.3333C12.6442 18.3323 13.1932 18.1699 13.6645 17.8655C14.1359 17.5612 14.5097 17.1276 14.7415 16.6167C15.2065 16.5347 15.6488 16.355 16.0392 16.0895C16.4296 15.824 16.7592 15.4788 17.0064 15.0765C17.2535 14.6742 17.4125 14.2241 17.4728 13.7558C17.5332 13.2875 17.4936 12.8118 17.3565 12.36C17.6663 12.0501 17.9121 11.6821 18.0797 11.2772C18.2472 10.8722 18.3334 10.4382 18.3332 10C18.33 9.39404 18.1629 8.80023 17.8495 8.28158C17.5361 7.76294 17.0881 7.3388 16.5532 7.05417ZM7.9165 16.6667C7.324 16.6667 6.80817 16.2467 6.6915 15.6683L6.51484 15H5.83317C4.914 15 4.1665 14.2525 4.1665 13.3333C4.1665 13.04 4.23734 12.765 4.37734 12.5158L4.75734 11.8358L4.104 11.4108C3.86799 11.2587 3.67381 11.0499 3.53917 10.8034C3.40454 10.557 3.33372 10.2808 3.33317 10C3.33317 9.18584 3.93567 8.48 4.73484 8.35667L6.14567 8.14L5.26317 7.01834C5.10601 6.81573 5.01487 6.56975 5.00207 6.31365C4.98927 6.05755 5.05544 5.80371 5.19162 5.58644C5.32779 5.36918 5.52741 5.19898 5.76347 5.09886C5.99954 4.99875 6.26065 4.97355 6.5115 5.02667L7.49984 5.1725V4.16667C7.49984 3.94566 7.58763 3.7337 7.74392 3.57742C7.9002 3.42114 8.11216 3.33334 8.33317 3.33334C8.55418 3.33334 8.76615 3.42114 8.92243 3.57742C9.07871 3.7337 9.1665 3.94566 9.1665 4.16667V15.4167C9.1665 16.1058 8.60567 16.6667 7.9165 16.6667ZM15.8957 11.41L15.2423 11.835L15.6223 12.515C15.7623 12.765 15.8332 13.04 15.8332 13.3333C15.8332 14.2525 15.0857 15 14.1248 15H13.4432L13.3082 15.6683C13.2499 15.9502 13.0963 16.2034 12.8731 16.3853C12.65 16.5671 12.371 16.6665 12.0832 16.6667C11.394 16.6667 10.8332 16.1058 10.8332 15.4167V4.16667C10.8332 3.70667 11.2065 3.33334 11.6665 3.33334C12.1265 3.33334 12.4998 3.70667 12.4998 4.20834V5.21417L13.4882 5.02667C13.739 4.97355 14.0001 4.99875 14.2362 5.09886C14.4723 5.19898 14.6719 5.36918 14.8081 5.58644C14.9442 5.80371 15.0104 6.05755 14.9976 6.31365C14.9848 6.56975 14.8937 6.81573 14.7365 7.01834L13.854 8.14084L15.2648 8.35751C15.6552 8.42072 16.0105 8.62057 16.2672 8.92141C16.524 9.22225 16.6655 9.60451 16.6665 10C16.6665 10.5692 16.3782 11.0958 15.8957 11.41Z" fill="black"/>
</svg>
