<svg width="24" height="24" viewBox="0 0 24 24" fill="none" xmlns="http://www.w3.org/2000/svg">
<path d="M18.0002 4H6.00018C4.89518 4 3.97418 4.91 4.24718 5.98C4.53781 7.11389 5.07318 8.1704 5.81569 9.07531C6.55821 9.98021 7.48985 10.7116 8.54518 11.218C9.36818 11.612 10.0002 12.386 10.0002 13.298V19.382C10.0003 19.5524 10.0439 19.7199 10.1269 19.8687C10.2099 20.0175 10.3296 20.1426 10.4746 20.2322C10.6195 20.3218 10.785 20.3728 10.9552 20.3805C11.1254 20.3881 11.2948 20.3522 11.4472 20.276L13.4472 19.276C13.6133 19.193 13.753 19.0654 13.8506 18.9075C13.9483 18.7496 14.0001 18.5677 14.0002 18.382V13.298C14.0002 12.386 14.6322 11.612 15.4542 11.218C16.5099 10.7119 17.442 9.98062 18.1849 9.0757C18.9277 8.17077 19.4634 7.11411 19.7542 5.98C20.0252 4.91 19.1032 4 18.0002 4Z" stroke="#1D1E22" stroke-width="2"/>
</svg>
