<svg width="20" height="20" viewBox="0 0 20 20" fill="none" xmlns="http://www.w3.org/2000/svg">
<path d="M7.91667 3.33334H7.47917C7.34028 3.33334 7.20833 3.34723 7.08333 3.37501C7.875 4.29167 8.48944 5.31612 8.92667 6.44834C9.36389 7.58056 9.58278 8.76445 9.58333 10C9.58333 11.2361 9.36444 12.4203 8.92667 13.5525C8.48889 14.6847 7.87444 15.7089 7.08333 16.625C7.20833 16.6528 7.34028 16.6667 7.47917 16.6667H7.91667C9.76389 16.6667 11.3369 16.0175 12.6358 14.7192C13.9347 13.4208 14.5839 11.8478 14.5833 10C14.5833 8.15278 13.9342 6.57973 12.6358 5.28084C11.3375 3.98195 9.76444 3.33278 7.91667 3.33334ZM7.91667 1.66667C9.06944 1.66667 10.1528 1.88556 11.1667 2.32334C12.1806 2.76112 13.0625 3.35473 13.8125 4.10417C14.5625 4.85417 15.1564 5.73612 15.5942 6.75001C16.0319 7.76389 16.2506 8.84723 16.25 10C16.25 11.1528 16.0311 12.2361 15.5933 13.25C15.1556 14.2639 14.5619 15.1458 13.8125 15.8958C13.0625 16.6458 12.1806 17.2397 11.1667 17.6775C10.1528 18.1153 9.06944 18.3339 7.91667 18.3333C7.18056 18.3333 6.46167 18.2395 5.76 18.0517C5.05833 17.8639 4.38833 17.5828 3.75 17.2083C5.04167 16.4583 6.05917 15.4444 6.8025 14.1667C7.54583 12.8889 7.91722 11.5 7.91667 10C7.91667 8.5 7.545 7.11112 6.80167 5.83334C6.05833 4.55556 5.04111 3.54167 3.75 2.79167C4.38889 2.41667 5.05917 2.13556 5.76083 1.94834C6.4625 1.76112 7.18111 1.66723 7.91667 1.66667Z" fill="black"/>
</svg>
