<svg width="24" height="24" viewBox="0 0 24 24" fill="none" xmlns="http://www.w3.org/2000/svg">
<path opacity="0.2" d="M22.5 12.75V15H5.72441C5.0793 15 4.45136 14.7921 3.93375 14.4071C3.41614 14.022 3.03644 13.4804 2.85097 12.8625L1.53191 8.46563C1.4983 8.35365 1.49133 8.23537 1.51156 8.12022C1.53179 8.00507 1.57866 7.89625 1.64843 7.80243C1.71819 7.70862 1.80893 7.63242 1.91338 7.57991C2.01784 7.5274 2.13312 7.50003 2.25003 7.5H3.00003L5.25003 9.75H8.71035L7.53941 6.23719C7.50185 6.12452 7.49158 6.00454 7.50946 5.88712C7.52733 5.76971 7.57283 5.65822 7.64222 5.56183C7.71161 5.46544 7.80289 5.38691 7.90856 5.3327C8.01423 5.27848 8.13127 5.25014 8.25003 5.25H9.00003L13.5 9.75H19.5C20.2957 9.75 21.0587 10.0661 21.6214 10.6287C22.184 11.1913 22.5 11.9544 22.5 12.75Z" fill="#1D1E22"/>
<path d="M21.0001 20.25C21.0001 20.4489 20.9211 20.6397 20.7804 20.7803C20.6398 20.921 20.449 21 20.2501 21H6.75011C6.55119 21 6.36043 20.921 6.21978 20.7803C6.07912 20.6397 6.00011 20.4489 6.00011 20.25C6.00011 20.0511 6.07912 19.8603 6.21978 19.7197C6.36043 19.579 6.55119 19.5 6.75011 19.5H20.2501C20.449 19.5 20.6398 19.579 20.7804 19.7197C20.9211 19.8603 21.0001 20.0511 21.0001 20.25ZM23.2501 12.75V15C23.2501 15.1989 23.1711 15.3897 23.0304 15.5303C22.8898 15.671 22.699 15.75 22.5001 15.75H5.72542C4.91802 15.7537 4.13126 15.4951 3.48353 15.013C2.83581 14.531 2.36216 13.8516 2.13386 13.0772L0.814794 8.68125C0.747593 8.45737 0.733641 8.22089 0.774053 7.99067C0.814464 7.76044 0.90812 7.54285 1.04755 7.35524C1.18698 7.16764 1.36832 7.01521 1.57711 6.91013C1.7859 6.80505 2.01636 6.75021 2.25011 6.75H3.00011C3.19875 6.75009 3.38925 6.82899 3.52979 6.96938L5.56136 9H7.66979L6.82604 6.47438C6.75085 6.24881 6.73035 6.0086 6.76625 5.77355C6.80214 5.53851 6.8934 5.31537 7.03249 5.12252C7.17158 4.92968 7.35452 4.77267 7.56623 4.66443C7.77793 4.55619 8.01234 4.49983 8.25011 4.5H9.00011C9.09863 4.49992 9.1962 4.51926 9.28724 4.5569C9.37829 4.59454 9.46103 4.64975 9.53073 4.71938L13.8114 9H19.5001C20.4947 9 21.4485 9.39509 22.1518 10.0984C22.855 10.8016 23.2501 11.7554 23.2501 12.75ZM21.7501 12.75C21.7501 12.1533 21.5131 11.581 21.0911 11.159C20.6691 10.7371 20.0968 10.5 19.5001 10.5H13.5001C13.3015 10.4999 13.111 10.421 12.9704 10.2806L8.68979 6H8.25011L9.42104 9.51281C9.4586 9.62548 9.46887 9.74546 9.45099 9.86288C9.43312 9.98029 9.38762 10.0918 9.31823 10.1882C9.24885 10.2846 9.15756 10.3631 9.05189 10.4173C8.94622 10.4715 8.82919 10.4999 8.71042 10.5H5.25011C5.15159 10.5001 5.05402 10.4807 4.96297 10.4431C4.87192 10.4055 4.78919 10.3503 4.71948 10.2806L2.68979 8.25H2.25011L3.56917 12.6469C3.70631 13.1117 3.99074 13.5193 4.37964 13.8084C4.76853 14.0976 5.24083 14.2525 5.72542 14.25H21.7501V12.75Z" fill="#1D1E22"/>
</svg>
