<svg width="20" height="20" viewBox="0 0 20 20" fill="none" xmlns="http://www.w3.org/2000/svg">
<path d="M10.0013 1.66663C5.4013 1.66663 1.66797 5.39996 1.66797 9.99996C1.66797 14.6 5.4013 18.3333 10.0013 18.3333H14.168V16.6666H10.0013C6.38463 16.6666 3.33464 13.6166 3.33464 9.99996C3.33464 6.38329 6.38463 3.33329 10.0013 3.33329C13.618 3.33329 16.668 6.38329 16.668 9.99996V11.1916C16.668 11.85 16.0763 12.5 15.418 12.5C14.7596 12.5 14.168 11.85 14.168 11.1916V9.99996C14.168 7.69996 12.3013 5.83329 10.0013 5.83329C7.7013 5.83329 5.83464 7.69996 5.83464 9.99996C5.83464 12.3 7.7013 14.1666 10.0013 14.1666C11.1513 14.1666 12.2013 13.7 12.9513 12.9416C13.493 13.6833 14.4263 14.1666 15.418 14.1666C17.0596 14.1666 18.3346 12.8333 18.3346 11.1916V9.99996C18.3346 5.39996 14.6013 1.66663 10.0013 1.66663ZM10.0013 12.5C8.61797 12.5 7.5013 11.3833 7.5013 9.99996C7.5013 8.61663 8.61797 7.49996 10.0013 7.49996C11.3846 7.49996 12.5013 8.61663 12.5013 9.99996C12.5013 11.3833 11.3846 12.5 10.0013 12.5Z" fill="#9D9D9D"/>
</svg>
