<svg width="24" height="24" viewBox="0 0 24 24" fill="none" xmlns="http://www.w3.org/2000/svg">
<path d="M10.4067 5.55999L4 12L10.4067 18.44C10.4645 18.516 10.538 18.5786 10.6222 18.6237C10.7064 18.6688 10.7993 18.6953 10.8946 18.7014C10.9899 18.7075 11.0854 18.693 11.1747 18.659C11.2639 18.6249 11.3448 18.5721 11.4118 18.5041C11.4789 18.4361 11.5305 18.3545 11.5633 18.2648C11.596 18.1751 11.6091 18.0794 11.6017 17.9841C11.5943 17.8889 11.5664 17.7964 11.5201 17.7129C11.4738 17.6294 11.4101 17.5568 11.3333 17.5L6.54 12.6667L19.2933 12.6667C19.4701 12.6667 19.6397 12.5964 19.7647 12.4714C19.8898 12.3464 19.96 12.1768 19.96 12C19.96 11.8232 19.8898 11.6536 19.7647 11.5286C19.6397 11.4036 19.4701 11.3333 19.2933 11.3333L6.54 11.3333L11.3333 6.49999C11.458 6.37445 11.5277 6.20454 11.527 6.02763C11.5264 5.85072 11.4555 5.6813 11.33 5.55665C11.2045 5.432 11.0346 5.36232 10.8576 5.36295C10.6807 5.36357 10.5113 5.43445 10.3867 5.55999L10.4067 5.55999Z" fill="white"/>
</svg>
