<svg width="20" height="20" viewBox="0 0 20 20" fill="none" xmlns="http://www.w3.org/2000/svg">
<path d="M9.08084 4.04372C9.16862 4.13161 9.21792 4.25075 9.21792 4.37497C9.21792 4.49919 9.16862 4.61833 9.08084 4.70622L4.25662 9.53122L16.8746 9.53122C16.9989 9.53122 17.1181 9.58061 17.206 9.66852C17.294 9.75642 17.3433 9.87565 17.3433 9.99997C17.3433 10.1243 17.294 10.2435 17.206 10.3314C17.1181 10.4193 16.9989 10.4687 16.8746 10.4687L4.25662 10.4687L9.08084 15.2937C9.16364 15.3826 9.20871 15.5001 9.20657 15.6216C9.20443 15.743 9.15523 15.8589 9.06935 15.9447C8.98347 16.0306 8.8676 16.0798 8.74616 16.082C8.62473 16.0841 8.5072 16.039 8.41834 15.9562L2.79334 10.3312C2.70556 10.2433 2.65625 10.1242 2.65625 9.99997C2.65625 9.87575 2.70556 9.75661 2.79334 9.66872L8.41834 4.04372C8.50623 3.95594 8.62537 3.90664 8.74959 3.90664C8.87381 3.90664 8.99295 3.95594 9.08084 4.04372Z" fill="black"/>
</svg>
