<svg width="14" height="12" viewBox="0 0 14 12" fill="none" xmlns="http://www.w3.org/2000/svg">
<path d="M5.67287 0.633382L0.333984 6.00005L5.67287 11.3667C5.72109 11.43 5.78235 11.4823 5.8525 11.5198C5.92266 11.5574 6.00007 11.5795 6.07949 11.5846C6.15892 11.5896 6.2385 11.5776 6.31287 11.5492C6.38723 11.5208 6.45463 11.4768 6.5105 11.4202C6.56637 11.3635 6.60942 11.2955 6.63672 11.2207C6.66402 11.1459 6.67493 11.0662 6.66873 10.9868C6.66253 10.9075 6.63935 10.8304 6.60077 10.7608C6.56219 10.6912 6.5091 10.6307 6.4451 10.5834L2.45065 6.5556L13.0784 6.5556C13.2258 6.5556 13.3671 6.49707 13.4713 6.39289C13.5755 6.2887 13.634 6.14739 13.634 6.00005C13.634 5.85271 13.5755 5.7114 13.4713 5.60721C13.3671 5.50302 13.2258 5.44449 13.0784 5.44449L2.45065 5.44449L6.4451 1.41672C6.54897 1.3121 6.60704 1.17051 6.60652 1.02308C6.60599 0.87566 6.54693 0.73448 6.44232 0.630604C6.3377 0.526727 6.19611 0.468663 6.04869 0.469184C5.90126 0.469704 5.76008 0.528769 5.65621 0.633382L5.67287 0.633382Z" fill="#EC3A4C"/>
</svg>
