<svg width="20" height="20" viewBox="0 0 20 20" fill="none" xmlns="http://www.w3.org/2000/svg">
<path opacity="0.2" d="M4.375 11.25H15.625L10 16.875L4.375 11.25Z" fill="#EC3A4C"/>
<path d="M3.93232 11.6922L9.55732 17.3172C9.61537 17.3753 9.6843 17.4214 9.76017 17.4528C9.83604 17.4843 9.91737 17.5005 9.99951 17.5005C10.0816 17.5005 10.163 17.4843 10.2388 17.4528C10.3147 17.4214 10.3836 17.3753 10.4417 17.3172L16.0667 11.6922C16.1542 11.6048 16.2138 11.4934 16.238 11.3721C16.2621 11.2508 16.2497 11.125 16.2024 11.0108C16.1551 10.8965 16.0749 10.7988 15.972 10.7302C15.8691 10.6615 15.7482 10.6249 15.6245 10.625H10.6245V3.125C10.6245 2.95924 10.5587 2.80027 10.4414 2.68305C10.3242 2.56584 10.1653 2.5 9.99951 2.5C9.83375 2.5 9.67478 2.56584 9.55757 2.68305C9.44036 2.80027 9.37451 2.95924 9.37451 3.125V10.625H4.37451C4.25082 10.6249 4.12989 10.6615 4.02702 10.7302C3.92415 10.7988 3.84396 10.8965 3.79662 11.0108C3.74927 11.125 3.7369 11.2508 3.76105 11.3721C3.78521 11.4934 3.84481 11.6048 3.93232 11.6922ZM14.1159 11.875L9.99951 15.9914L5.8831 11.875H14.1159Z" fill="#EC3A4C"/>
</svg>
