<svg width="14" height="8" viewBox="0 0 14 8" fill="none" xmlns="http://www.w3.org/2000/svg">
<path fill-rule="evenodd" clip-rule="evenodd" d="M7.70637 7.707C7.51884 7.89447 7.26453 7.99979 6.99937 7.99979C6.7342 7.99979 6.47989 7.89447 6.29237 7.707L0.635367 2.05C0.539856 1.95775 0.463674 1.84741 0.411265 1.7254C0.358856 1.6034 0.33127 1.47218 0.330116 1.3394C0.328962 1.20662 0.354264 1.07494 0.404545 0.952046C0.454826 0.82915 0.529079 0.717497 0.622972 0.623604C0.716864 0.529712 0.828516 0.455459 0.951412 0.405178C1.07431 0.354897 1.20599 0.329595 1.33877 0.330749C1.47155 0.331903 1.60277 0.359489 1.72477 0.411898C1.84677 0.464307 1.95712 0.540489 2.04937 0.635999L6.99937 5.586L11.9494 0.635999C12.138 0.453841 12.3906 0.353047 12.6528 0.355325C12.915 0.357604 13.1658 0.462772 13.3512 0.648181C13.5366 0.833589 13.6418 1.0844 13.644 1.3466C13.6463 1.6088 13.5455 1.8614 13.3634 2.05L7.70637 7.707Z" fill="black"/>
</svg>
