<svg width="66" height="62" viewBox="0 0 66 62" fill="none" xmlns="http://www.w3.org/2000/svg">
<path d="M50.5 35.5625C52.2405 35.5625 53.9097 34.8711 55.1404 33.6404C56.3711 32.4097 57.0625 30.7405 57.0625 29C57.0625 27.2595 56.3711 25.5903 55.1404 24.3596C53.9097 23.1289 52.2405 22.4375 50.5 22.4375C48.7595 22.4375 47.0903 23.1289 45.8596 24.3596C44.6289 25.5903 43.9375 27.2595 43.9375 29C43.9375 30.7405 44.6289 32.4097 45.8596 33.6404C47.0903 34.8711 48.7595 35.5625 50.5 35.5625ZM50.5 33.375C49.3397 33.375 48.2269 32.9141 47.4064 32.0936C46.5859 31.2731 46.125 30.1603 46.125 29C46.125 27.8397 46.5859 26.7269 47.4064 25.9064C48.2269 25.0859 49.3397 24.625 50.5 24.625C51.6603 24.625 52.7731 25.0859 53.5936 25.9064C54.4141 26.7269 54.875 27.8397 54.875 29C54.875 30.1603 54.4141 31.2731 53.5936 32.0936C52.7731 32.9141 51.6603 33.375 50.5 33.375ZM34.0938 13.1406C34.0938 14.446 33.5752 15.6979 32.6522 16.6209C31.7291 17.5439 30.4772 18.0625 29.1719 18.0625C27.8665 18.0625 26.6146 17.5439 25.6916 16.6209C24.7686 15.6979 24.25 14.446 24.25 13.1406C24.25 11.8353 24.7686 10.5834 25.6916 9.66033C26.6146 8.7373 27.8665 8.21875 29.1719 8.21875C30.4772 8.21875 31.7291 8.7373 32.6522 9.66033C33.5752 10.5834 34.0938 11.8353 34.0938 13.1406ZM20.9688 21.8906C20.9688 22.537 20.8414 23.177 20.5941 23.7741C20.3467 24.3713 19.9842 24.9139 19.5272 25.3709C19.0701 25.828 18.5275 26.1905 17.9304 26.4378C17.3332 26.6852 16.6932 26.8125 16.0469 26.8125C15.4005 26.8125 14.7605 26.6852 14.1634 26.4378C13.5662 26.1905 13.0236 25.828 12.5666 25.3709C12.1095 24.9139 11.747 24.3713 11.4997 23.7741C11.2523 23.177 11.125 22.537 11.125 21.8906C11.125 20.5853 11.6436 19.3334 12.5666 18.4103C13.4896 17.4873 14.7415 16.9688 16.0469 16.9688C17.3522 16.9688 18.6041 17.4873 19.5272 18.4103C20.4502 19.3334 20.9688 20.5853 20.9688 21.8906ZM16.0469 42.125C16.6932 42.125 17.3332 41.9977 17.9304 41.7503C18.5275 41.503 19.0701 41.1405 19.5272 40.6834C19.9842 40.2264 20.3467 39.6838 20.5941 39.0866C20.8414 38.4895 20.9688 37.8495 20.9688 37.2031C20.9688 36.5568 20.8414 35.9168 20.5941 35.3196C20.3467 34.7225 19.9842 34.1799 19.5272 33.7228C19.0701 33.2658 18.5275 32.9033 17.9304 32.6559C17.3332 32.4086 16.6932 32.2812 16.0469 32.2812C14.7415 32.2812 13.4896 32.7998 12.5666 33.7228C11.6436 34.6459 11.125 35.8978 11.125 37.2031C11.125 38.5085 11.6436 39.7604 12.5666 40.6834C13.4896 41.6064 14.7415 42.125 16.0469 42.125ZM33 47.0469C33 48.3522 32.4814 49.6041 31.5584 50.5272C30.6354 51.4502 29.3835 51.9688 28.0781 51.9688C26.7728 51.9688 25.5209 51.4502 24.5978 50.5272C23.6748 49.6041 23.1562 48.3522 23.1562 47.0469C23.1562 45.7415 23.6748 44.4896 24.5978 43.5666C25.5209 42.6436 26.7728 42.125 28.0781 42.125C29.3835 42.125 30.6354 42.6436 31.5584 43.5666C32.4814 44.4896 33 45.7415 33 47.0469Z" fill="#EC3A4C"/>
<path d="M33.4373 61.8125C27.3306 61.3666 21.4336 59.3944 16.2873 56.0769C8.76589 51.6706 3.29979 44.4604 1.08855 36.0284C0.135499 32.3574 -0.0754465 28.5331 0.468074 24.7796C1.0116 21.026 2.29865 17.4186 4.25387 14.1687C12.4723 0.606247 30.8954 -3.40344 47.1026 4.85875C56.7692 9.79156 63.9989 18.4016 65.517 26.7994C66.0215 29.1165 65.9647 31.5207 65.3513 33.8115C64.7379 36.1022 63.5857 38.2131 61.9907 39.9681C57.2701 45.1219 51.1779 45.0497 46.7504 44.9994H46.7351C43.7929 44.9469 41.9554 44.9994 41.5157 45.8744C41.6689 46.5481 41.9357 47.1956 42.3032 47.7841C43.408 49.3378 43.9629 51.2156 43.8801 53.1202C43.7973 55.0248 43.0815 56.8474 41.8461 58.2994C40.8088 59.4919 39.5105 60.4292 38.0522 61.0385C36.5938 61.6478 35.0146 61.9126 33.4373 61.8125ZM29.782 4.9375C25.4648 4.79082 21.184 5.77305 17.3626 7.78714C13.5412 9.80124 10.3114 12.7775 7.9923 16.4219C6.33756 19.1787 5.24958 22.2381 4.79207 25.4207C4.33457 28.6033 4.51674 31.8452 5.32793 34.9566C7.25144 42.261 11.9957 48.5033 18.5186 52.3122C25.8489 56.6609 35.2179 59.5309 38.4489 55.5344C40.1704 53.4169 39.6236 52.1109 38.4226 49.7987C37.8032 48.9612 37.404 47.9815 37.2618 46.9495C37.1197 45.9175 37.239 44.8663 37.6089 43.8925C39.3173 40.5237 43.117 40.5609 46.7964 40.6112C50.8104 40.6659 55.3648 40.7206 58.7664 37.0041C59.8903 35.736 60.6983 34.2199 61.1241 32.5797C61.5499 30.9395 61.5815 29.2219 61.2164 27.5672C59.952 20.5672 53.4814 13.0137 45.1207 8.75468C40.3809 6.29469 35.1264 4.99046 29.7864 4.94843L29.782 4.9375Z" fill="#EC3A4C"/>
</svg>
