<svg width="20" height="20" viewBox="0 0 20 20" fill="none" xmlns="http://www.w3.org/2000/svg">
<path d="M3.33268 17.5C2.87435 17.5 2.48185 17.3366 2.15518 17.01C1.82852 16.6833 1.66546 16.2911 1.66602 15.8333V6.66663C1.66602 6.20829 1.82935 5.81579 2.15602 5.48913C2.48268 5.16246 2.87491 4.99941 3.33268 4.99996H6.66602V3.33329C6.66602 2.87496 6.82935 2.48246 7.15602 2.15579C7.48268 1.82913 7.87491 1.66607 8.33268 1.66663H11.666C12.1244 1.66663 12.5169 1.82996 12.8435 2.15663C13.1702 2.48329 13.3332 2.87552 13.3327 3.33329V4.99996H16.666C17.1244 4.99996 17.5169 5.16329 17.8435 5.48996C18.1702 5.81663 18.3332 6.20885 18.3327 6.66663V15.8333C18.3327 16.2916 18.1694 16.6841 17.8427 17.0108C17.516 17.3375 17.1238 17.5005 16.666 17.5H3.33268ZM3.33268 15.8333H16.666V6.66663H3.33268V15.8333ZM8.33268 4.99996H11.666V3.33329H8.33268V4.99996Z" fill="#D52B3B"/>
</svg>
