<svg width="60" height="60" viewBox="0 0 60 60" fill="none" xmlns="http://www.w3.org/2000/svg">
<path d="M32.7445 59.0383C39.5044 58.4089 45.8303 55.4317 50.6237 50.6238C62.0132 39.2342 62.0132 20.7658 50.6237 9.37626C39.2341 -2.01332 20.7658 -2.01332 9.37617 9.37626C-2.01341 20.7658 -2.01341 39.2342 9.37617 50.6238C12.2959 53.5499 15.8057 55.8204 19.6716 57.2839C23.5376 58.7474 27.671 59.3703 31.7966 59.1113C32.1141 59.1572 32.4378 59.1323 32.7445 59.0383ZM5.43284 26.6575C6.05653 22.0255 7.98342 17.6659 10.9891 14.0867L26.9083 30L23.7349 33.1733C20.6666 30.6942 17.2483 29.3583 13.9903 28.4833C12.0945 27.9758 10.2103 27.6083 8.48659 27.2788L8.43992 27.2671C7.3695 27.0629 6.36909 26.8675 5.43576 26.6575H5.43284ZM5.23159 31.0908C6.00742 31.2542 6.79201 31.4058 7.56492 31.5575L7.60576 31.5633C9.3645 31.9046 11.1116 32.2429 12.8528 32.7096C15.6324 33.4563 18.2808 34.5063 20.617 36.2913L10.992 45.9163C7.48966 41.7448 5.46446 36.5326 5.23159 31.0908ZM23.7203 39.3742C25.6891 41.8883 26.7537 44.6417 27.5033 47.4621C27.8678 48.8329 28.1478 50.1688 28.4308 51.5221L28.6758 52.6742C28.8216 53.3742 28.982 54.0771 29.157 54.7771C23.6287 54.5969 18.3208 52.5664 14.0837 49.0108L23.7203 39.3742ZM33.6166 54.5292C33.366 53.6127 33.1443 52.6887 32.9516 51.7583L32.727 50.6879C32.4412 49.32 32.1291 47.8296 31.7324 46.3363C30.8545 43.0463 29.5099 39.52 26.8324 36.2621L29.9999 33.0946L45.9162 49.0108C42.4084 51.9569 38.1494 53.8678 33.6166 54.5292ZM33.0916 30L36.6266 26.4679C39.8758 29.2154 43.2766 30.7263 46.4412 31.7938C47.7449 32.2371 49.0574 32.6163 50.2649 32.9692C50.7287 33.1033 51.1778 33.2317 51.6066 33.36C52.6274 33.6692 53.5637 33.9667 54.4183 34.2963C53.6716 38.5786 51.8061 42.5874 49.0108 45.9163L33.0916 30ZM52.8578 29.1688L51.3937 28.74C50.2026 28.4026 49.0191 28.0389 47.8441 27.6492C45.0908 26.7158 42.3374 25.4908 39.7328 23.3617L49.0078 14.0838C52.7022 18.4846 54.7474 24.0354 54.7916 29.7813C54.1499 29.5625 53.4995 29.3613 52.8578 29.1688ZM45.9162 10.9892L36.6383 20.2671C34.5091 17.6625 33.2812 14.9092 32.3508 12.1558C31.9597 10.9803 31.596 9.79579 31.2599 8.60335C31.1141 8.11918 30.977 7.6321 30.8283 7.1421C30.6358 6.50043 30.4374 5.85001 30.2187 5.20835C35.9641 5.25168 41.5149 7.29583 45.9162 10.9892ZM28.2033 13.5558C29.2737 16.7204 30.7816 20.1242 33.532 23.3733L29.9999 26.9083L14.0837 10.9892C17.4126 8.19382 21.4214 6.32829 25.7037 5.58168C26.0333 6.43626 26.3308 7.3696 26.637 8.39335L27.0308 9.73501C27.3808 10.9425 27.7599 12.2521 28.2033 13.5558Z" fill="#EC3A4C"/>
</svg>
