<svg width="23" height="50" viewBox="0 0 23 50" fill="none" xmlns="http://www.w3.org/2000/svg">
<path d="M0.512053 47.8909C0.451787 48.1604 0.621393 48.4277 0.890878 48.4879L5.2824 49.47C5.55189 49.5303 5.81921 49.3607 5.87947 49.0912C5.93974 48.8217 5.77013 48.5544 5.50065 48.4941L1.59707 47.6212L2.47004 43.7176C2.53031 43.4481 2.3607 43.1808 2.09122 43.1205C1.82173 43.0603 1.55441 43.2299 1.49415 43.4994L0.512053 47.8909ZM9.14199 42.242L0.73213 47.5778L1.26787 48.4222L9.67773 43.0863L9.14199 42.242ZM14.6303 1.33665C25.9039 13.7165 23.2802 33.2716 9.14199 42.242L9.67773 43.0863C24.3405 33.7832 27.0616 13.5025 15.3697 0.663351L14.6303 1.33665Z" fill="black"/>
</svg>
