<svg width="25" height="24" viewBox="0 0 25 24" fill="none" xmlns="http://www.w3.org/2000/svg">
<path opacity="0.2" d="M21.5 12C21.5002 13.5806 21.0841 15.1333 20.2937 16.502C19.5033 17.8708 18.3663 19.0072 16.9972 19.797C15.6281 20.5868 14.0752 21.0021 12.4946 21.0011C10.914 21.0002 9.36158 20.583 7.99344 19.7916L4.48813 20.9606C4.35598 21.0047 4.21417 21.0111 4.07859 20.9791C3.94301 20.9471 3.81903 20.878 3.72052 20.7795C3.62202 20.681 3.5529 20.557 3.52091 20.4214C3.48891 20.2858 3.49531 20.144 3.53938 20.0119L4.70844 16.5066C4.01741 15.3113 3.61064 13.9731 3.51959 12.5955C3.42854 11.2179 3.65566 9.83775 4.18337 8.56195C4.71108 7.28615 5.52523 6.14886 6.56284 5.23807C7.60044 4.32729 8.83367 3.66744 10.1671 3.30956C11.5006 2.95169 12.8985 2.9054 14.2527 3.17426C15.6069 3.44312 16.881 4.01994 17.9766 4.86007C19.0722 5.70021 19.9598 6.78114 20.5708 8.01923C21.1818 9.25732 21.4997 10.6194 21.5 12Z" fill="white"/>
<path d="M12.4999 2.25C10.8166 2.24963 9.16188 2.68508 7.69679 3.51396C6.2317 4.34285 5.00616 5.53692 4.13947 6.97997C3.27277 8.42301 2.79444 10.0659 2.75104 11.7486C2.70764 13.4314 3.10065 15.0967 3.89181 16.5825L2.82774 19.7747C2.7396 20.039 2.72681 20.3226 2.7908 20.5938C2.85479 20.8649 2.99304 21.1129 3.19004 21.3099C3.38704 21.5069 3.63502 21.6451 3.90618 21.7091C4.17733 21.7731 4.46095 21.7603 4.72524 21.6722L7.91743 20.6081C9.22503 21.3036 10.6739 21.6921 12.154 21.744C13.6342 21.7959 15.1067 21.51 16.4598 20.9079C17.8129 20.3057 19.0111 19.4033 19.9634 18.269C20.9156 17.1346 21.597 15.7983 21.9557 14.3613C22.3144 12.9244 22.341 11.4246 22.0335 9.97578C21.726 8.52701 21.0925 7.16732 20.1811 5.99992C19.2697 4.83253 18.1043 3.88811 16.7733 3.23836C15.4424 2.58861 13.981 2.25061 12.4999 2.25ZM12.4999 20.25C11.0496 20.251 9.62471 19.8691 8.36931 19.1428C8.25537 19.0767 8.12603 19.0418 7.99431 19.0416C7.91362 19.0416 7.83349 19.0549 7.75712 19.0809L4.24993 20.25L5.41899 16.7438C5.45269 16.643 5.4646 16.5362 5.45394 16.4305C5.44327 16.3248 5.41027 16.2226 5.35712 16.1306C4.44772 14.5584 4.0826 12.7299 4.3184 10.929C4.5542 9.12801 5.37774 7.4552 6.66126 6.17006C7.94479 4.88491 9.61655 4.05925 11.4172 3.82118C13.2179 3.5831 15.0468 3.94591 16.6202 4.85333C18.1936 5.76074 19.4236 7.16204 20.1193 8.83983C20.8151 10.5176 20.9377 12.3781 20.4681 14.1327C19.9986 15.8873 18.9632 17.4379 17.5224 18.5439C16.0817 19.65 14.3163 20.2497 12.4999 20.25ZM16.2499 10.5C16.2499 10.6989 16.1709 10.8897 16.0303 11.0303C15.8896 11.171 15.6988 11.25 15.4999 11.25H9.49993C9.30102 11.25 9.11025 11.171 8.9696 11.0303C8.82895 10.8897 8.74993 10.6989 8.74993 10.5C8.74993 10.3011 8.82895 10.1103 8.9696 9.96967C9.11025 9.82902 9.30102 9.75 9.49993 9.75H15.4999C15.6988 9.75 15.8896 9.82902 16.0303 9.96967C16.1709 10.1103 16.2499 10.3011 16.2499 10.5ZM16.2499 13.5C16.2499 13.6989 16.1709 13.8897 16.0303 14.0303C15.8896 14.171 15.6988 14.25 15.4999 14.25H9.49993C9.30102 14.25 9.11025 14.171 8.9696 14.0303C8.82895 13.8897 8.74993 13.6989 8.74993 13.5C8.74993 13.3011 8.82895 13.1103 8.9696 12.9697C9.11025 12.829 9.30102 12.75 9.49993 12.75H15.4999C15.6988 12.75 15.8896 12.829 16.0303 12.9697C16.1709 13.1103 16.2499 13.3011 16.2499 13.5Z" fill="white"/>
</svg>
