<svg width="24" height="24" viewBox="0 0 24 24" fill="none" xmlns="http://www.w3.org/2000/svg">
<path opacity="0.2" d="M21 12C21.0002 13.5806 20.5841 15.1333 19.7937 16.502C19.0033 17.8708 17.8663 19.0072 16.4972 19.797C15.1281 20.5868 13.5752 21.0021 11.9946 21.0011C10.414 21.0002 8.86158 20.583 7.49344 19.7916L3.98813 20.9606C3.85598 21.0047 3.71417 21.0111 3.57859 20.9791C3.44301 20.9471 3.31903 20.878 3.22052 20.7795C3.12202 20.681 3.0529 20.557 3.02091 20.4214C2.98891 20.2858 2.99531 20.144 3.03938 20.0119L4.20844 16.5066C3.51741 15.3113 3.11064 13.9731 3.01959 12.5955C2.92854 11.2178 3.15566 9.83774 3.68337 8.56194C4.21108 7.28614 5.02523 6.14885 6.06284 5.23807C7.10044 4.32728 8.33367 3.66743 9.66711 3.30956C11.0006 2.95168 12.3985 2.90539 13.7527 3.17425C15.1069 3.44312 16.381 4.01993 17.4766 4.86007C18.5722 5.7002 19.4598 6.78113 20.0708 8.01922C20.6818 9.25731 20.9997 10.6194 21 12Z" fill="#1D1E22"/>
<path d="M12.0002 2.25C10.3169 2.24963 8.66213 2.68508 7.19704 3.51396C5.73194 4.34285 4.50641 5.53692 3.63971 6.97997C2.77302 8.42301 2.29469 10.0659 2.25129 11.7486C2.20789 13.4314 2.60089 15.0967 3.39205 16.5825L2.32799 19.7747C2.23985 20.039 2.22706 20.3226 2.29105 20.5938C2.35504 20.8649 2.49328 21.1129 2.69029 21.3099C2.88729 21.5069 3.13526 21.6451 3.40642 21.7091C3.67757 21.7731 3.96119 21.7603 4.22549 21.6722L7.41768 20.6081C8.72527 21.3036 10.1741 21.6921 11.6543 21.744C13.1344 21.7959 14.6069 21.51 15.9601 20.9079C17.3132 20.3057 18.5114 19.4033 19.4636 18.269C20.4159 17.1346 21.0972 15.7983 21.4559 14.3613C21.8146 12.9244 21.8412 11.4246 21.5337 9.97578C21.2263 8.52701 20.5928 7.16732 19.6813 5.99992C18.7699 4.83253 17.6045 3.88811 16.2736 3.23836C14.9427 2.58861 13.4812 2.25061 12.0002 2.25ZM12.0002 20.25C10.5498 20.251 9.12495 19.8691 7.86955 19.1428C7.75561 19.0767 7.62627 19.0418 7.49455 19.0416C7.41386 19.0416 7.33373 19.0549 7.25736 19.0809L3.75018 20.25L4.91924 16.7438C4.95294 16.643 4.96485 16.5362 4.95418 16.4305C4.94351 16.3248 4.91051 16.2226 4.85736 16.1306C3.94796 14.5584 3.58284 12.7299 3.81864 10.929C4.05444 9.12801 4.87798 7.4552 6.16151 6.17006C7.44503 4.88491 9.11679 4.05925 10.9175 3.82118C12.7181 3.5831 14.547 3.94591 16.1204 4.85333C17.6938 5.76074 18.9238 7.16204 19.6196 8.83983C20.3153 10.5176 20.4379 12.3781 19.9684 14.1327C19.4989 15.8873 18.4634 17.4379 17.0227 18.5439C15.582 19.65 13.8165 20.2497 12.0002 20.25ZM15.7502 10.5C15.7502 10.6989 15.6712 10.8897 15.5305 11.0303C15.3899 11.171 15.1991 11.25 15.0002 11.25H9.00017C8.80126 11.25 8.6105 11.171 8.46984 11.0303C8.32919 10.8897 8.25017 10.6989 8.25017 10.5C8.25017 10.3011 8.32919 10.1103 8.46984 9.96967C8.6105 9.82902 8.80126 9.75 9.00017 9.75H15.0002C15.1991 9.75 15.3899 9.82902 15.5305 9.96967C15.6712 10.1103 15.7502 10.3011 15.7502 10.5ZM15.7502 13.5C15.7502 13.6989 15.6712 13.8897 15.5305 14.0303C15.3899 14.171 15.1991 14.25 15.0002 14.25H9.00017C8.80126 14.25 8.6105 14.171 8.46984 14.0303C8.32919 13.8897 8.25017 13.6989 8.25017 13.5C8.25017 13.3011 8.32919 13.1103 8.46984 12.9697C8.6105 12.829 8.80126 12.75 9.00017 12.75H15.0002C15.1991 12.75 15.3899 12.829 15.5305 12.9697C15.6712 13.1103 15.7502 13.3011 15.7502 13.5Z" fill="#1D1E22"/>
</svg>
