<svg width="13" height="10" viewBox="0 0 13 10" fill="none" xmlns="http://www.w3.org/2000/svg">
<path d="M12.0675 1.69229L4.56754 9.19229C4.50949 9.2504 4.44056 9.2965 4.36469 9.32795C4.28881 9.35941 4.20748 9.37559 4.12535 9.37559C4.04321 9.37559 3.96188 9.35941 3.88601 9.32795C3.81014 9.2965 3.74121 9.2504 3.68316 9.19229L0.55816 6.06729C0.440885 5.95002 0.375 5.79096 0.375 5.6251C0.375 5.45925 0.440885 5.30019 0.55816 5.18292C0.675435 5.06564 0.834495 4.99976 1.00035 4.99976C1.1662 4.99976 1.32526 5.06564 1.44254 5.18292L4.12535 7.86651L11.1832 0.807916C11.3004 0.69064 11.4595 0.624756 11.6253 0.624756C11.7912 0.624756 11.9503 0.69064 12.0675 0.807916C12.1848 0.925191 12.2507 1.08425 12.2507 1.2501C12.2507 1.41596 12.1848 1.57502 12.0675 1.69229Z" fill="white"/>
</svg>
