<svg width="24" height="24" viewBox="0 0 24 24" fill="none" xmlns="http://www.w3.org/2000/svg">
<g clip-path="url(#clip0_873_890)">
<path d="M20.0007 2H9.33398V5.33333H10.6673V3.33333H20.0007C20.4007 3.33333 20.6673 3.6 20.6673 4V11.3333C20.6673 11.7333 20.4007 12 20.0007 12H11.334V16.6667H7.80065L5.33398 18.6V16.6667H3.33398C2.93398 16.6667 2.66732 16.4 2.66732 16V8.66667C2.66732 8.26667 2.93398 8 3.33398 8H12.0007V6.66667H3.33398C2.20065 6.66667 1.33398 7.53333 1.33398 8.66667V16C1.33398 17.1333 2.20065 18 3.33398 18H4.00065V21.4L8.20065 18H12.6673V13.3333H20.0007C21.134 13.3333 22.0007 12.4667 22.0007 11.3333V4C22.0007 2.86667 21.134 2 20.0007 2Z" fill="#25262A"/>
<path d="M4.13281 15.2667H5.73281L6.13281 14.2H8.19948L8.59948 15.2667H10.1995L7.93281 9.33333H6.33281L4.13281 15.2667ZM7.13281 11L7.79948 13.0667H6.46615L7.13281 11Z" fill="#25262A"/>
<path d="M13.334 11.3333C14.0673 11.3333 15.0673 11.1333 16.0007 10.6667C16.934 11.1333 18.0007 11.3333 18.6673 11.3333V10C18.6673 10 18.0007 10 17.2673 9.73333C18.0673 8.93333 18.6673 7.73333 18.6673 6V5.33333H16.6673V4H15.334V5.33333H13.334V6.66667H17.2673C17.134 7.86667 16.6007 8.6 16.0007 9.06667C15.6007 8.73333 15.2007 8.26667 14.934 7.66667H13.534C13.8007 8.53333 14.2007 9.2 14.734 9.73333C14.0673 10 13.4673 10 13.334 10V11.3333Z" fill="#25262A"/>
</g>
<defs>
<clipPath id="clip0_873_890">
<rect width="24" height="24" fill="white"/>
</clipPath>
</defs>
</svg>
