<svg width="20" height="20" viewBox="0 0 20 20" fill="none" xmlns="http://www.w3.org/2000/svg">
<path d="M8.91634 12.75L11.9163 9.74999C11.9997 9.66666 12.09 9.60777 12.1872 9.57333C12.2844 9.53888 12.3886 9.52138 12.4997 9.52083C12.6108 9.52083 12.715 9.53833 12.8122 9.57333C12.9094 9.60833 12.9997 9.66721 13.083 9.74999L16.083 12.75C16.2497 12.9167 16.333 13.1111 16.333 13.3333C16.333 13.5555 16.2497 13.75 16.083 13.9167C15.9163 14.0833 15.7183 14.1667 15.4888 14.1667C15.2594 14.1667 15.0616 14.0833 14.8955 13.9167L13.333 12.3542L13.333 17.5C13.333 17.7361 13.253 17.9342 13.093 18.0942C12.933 18.2542 12.7352 18.3339 12.4997 18.3333C12.2636 18.3333 12.0655 18.2533 11.9055 18.0933C11.7455 17.9333 11.6658 17.7355 11.6663 17.5L11.6663 12.3542L10.1038 13.9167C9.93717 14.0833 9.74273 14.1667 9.52051 14.1667C9.29829 14.1667 9.10384 14.0833 8.93717 13.9167C8.77051 13.75 8.68023 13.5592 8.66634 13.3442C8.65245 13.1292 8.73579 12.9311 8.91634 12.75ZM3.93717 6.08333C3.77051 6.24999 3.68356 6.44444 3.67634 6.66666C3.66912 6.88888 3.74912 7.08332 3.91634 7.24999L6.91634 10.25C6.99968 10.3333 7.08995 10.3922 7.18717 10.4267C7.2844 10.4611 7.38856 10.4786 7.49967 10.4792C7.61079 10.4792 7.71495 10.4617 7.81217 10.4267C7.9094 10.3917 7.99967 10.3328 8.08301 10.25L11.083 7.24999C11.2497 7.08333 11.333 6.88888 11.333 6.66666C11.333 6.44444 11.2497 6.24999 11.083 6.08333C10.9163 5.91666 10.7183 5.83333 10.4888 5.83333C10.2594 5.83333 10.0616 5.91666 9.89551 6.08333L8.33301 7.64583L8.33301 2.49999C8.33301 2.26388 8.25301 2.06583 8.09301 1.90583C7.93301 1.74583 7.73523 1.6661 7.49967 1.66666C7.26356 1.66666 7.06551 1.74666 6.90551 1.90666C6.74551 2.06666 6.66579 2.26444 6.66634 2.49999L6.66634 7.64582L5.10384 6.08333C4.93717 5.91666 4.74273 5.83332 4.52051 5.83332C4.29828 5.83332 4.10384 5.91666 3.93717 6.08333Z" fill="#EC3A4C"/>
</svg>
