<svg width="20" height="20" viewBox="0 0 20 20" fill="none" xmlns="http://www.w3.org/2000/svg">
<path opacity="0.2" d="M19 10C19 11.78 18.4722 13.5201 17.4832 15.0001C16.4943 16.4802 15.0887 17.6337 13.4442 18.3149C11.7996 18.9961 9.99002 19.1743 8.24419 18.8271C6.49836 18.4798 4.89472 17.6226 3.63604 16.364C2.37737 15.1053 1.5202 13.5016 1.17294 11.7558C0.82567 10.01 1.0039 8.20038 1.68509 6.55585C2.36628 4.91131 3.51983 3.50571 4.99987 2.51677C6.47991 1.52784 8.21997 1 10 1C12.387 1 14.6761 1.94821 16.364 3.63604C18.0518 5.32387 19 7.61305 19 10Z" fill="#EC3A4C"/>
<path d="M10 0.25C8.07164 0.25 6.18657 0.821828 4.58319 1.89317C2.97982 2.96451 1.73013 4.48726 0.992179 6.26884C0.254225 8.05042 0.061142 10.0108 0.437348 11.9021C0.813554 13.7934 1.74215 15.5307 3.10571 16.8943C4.46928 18.2579 6.20656 19.1865 8.09787 19.5627C9.98919 19.9389 11.9496 19.7458 13.7312 19.0078C15.5127 18.2699 17.0355 17.0202 18.1068 15.4168C19.1782 13.8134 19.75 11.9284 19.75 10C19.7473 7.41498 18.7192 4.93661 16.8913 3.10872C15.0634 1.28084 12.585 0.25273 10 0.25ZM10 18.25C8.36831 18.25 6.77326 17.7661 5.41655 16.8596C4.05984 15.9531 3.00242 14.6646 2.378 13.1571C1.75358 11.6496 1.5902 9.99085 1.90853 8.3905C2.22685 6.79016 3.01259 5.32015 4.16637 4.16637C5.32016 3.01259 6.79017 2.22685 8.39051 1.90852C9.99085 1.59019 11.6497 1.75357 13.1571 2.37799C14.6646 3.00242 15.9531 4.05984 16.8596 5.41655C17.7661 6.77325 18.25 8.3683 18.25 10C18.2475 12.1873 17.3775 14.2843 15.8309 15.8309C14.2843 17.3775 12.1873 18.2475 10 18.25ZM7 10C7 10.6296 7.19812 11.2433 7.56628 11.7541C7.93444 12.2649 8.45399 12.6469 9.05132 12.8461C9.64866 13.0452 10.2935 13.0513 10.8945 12.8635C11.4955 12.6758 12.0222 12.3037 12.4 11.8C12.5195 11.6409 12.6973 11.5357 12.8943 11.5077C13.0913 11.4796 13.2913 11.531 13.4505 11.6505C13.6096 11.7699 13.7148 11.9477 13.7428 12.1447C13.7708 12.3417 13.7195 12.5418 13.6 12.7009C13.0332 13.4563 12.2431 14.0142 11.3416 14.2956C10.4402 14.577 9.473 14.5676 8.57713 14.2689C7.68126 13.9701 6.90208 13.3971 6.34995 12.631C5.79781 11.8648 5.50071 10.9444 5.50071 10C5.50071 9.05563 5.79781 8.13519 6.34995 7.36904C6.90208 6.60289 7.68126 6.02986 8.57713 5.73111C9.473 5.43236 10.4402 5.42302 11.3416 5.70443C12.2431 5.98583 13.0332 6.54371 13.6 7.29906C13.6592 7.37786 13.7022 7.46753 13.7267 7.56296C13.7512 7.6584 13.7567 7.75772 13.7428 7.85527C13.7289 7.95281 13.696 8.04667 13.6458 8.13147C13.5956 8.21628 13.5293 8.29037 13.4505 8.34953C13.3717 8.40869 13.282 8.45175 13.1866 8.47625C13.0911 8.50075 12.9918 8.50621 12.8943 8.49232C12.7967 8.47844 12.7029 8.44548 12.6181 8.39532C12.5333 8.34516 12.4592 8.27879 12.4 8.2C12.0222 7.69628 11.4955 7.3242 10.8945 7.13646C10.2935 6.94872 9.64866 6.95484 9.05132 7.15395C8.45399 7.35306 7.93444 7.73507 7.56628 8.24587C7.19812 8.75667 7 9.37035 7 10Z" fill="#EC3A4C"/>
</svg>
