<svg width="20" height="20" viewBox="0 0 20 20" fill="none" xmlns="http://www.w3.org/2000/svg">
<path d="M7.49935 11.6666L8.11602 11.7691C8.1309 11.6796 8.12611 11.5879 8.10197 11.5004C8.07783 11.4129 8.03493 11.3318 7.97624 11.2625C7.91756 11.1933 7.8445 11.1377 7.76214 11.0995C7.67978 11.0614 7.59011 11.0416 7.49935 11.0416V11.6666ZM16.666 11.6666V12.2916C16.8318 12.2916 16.9907 12.2258 17.108 12.1086C17.2252 11.9914 17.291 11.8324 17.291 11.6666H16.666ZM14.9993 2.70831H5.53268V3.95831H14.9993V2.70831ZM4.53268 12.2916H7.49935V11.0416H4.53268V12.2916ZM6.88268 11.5641L6.21102 15.5933L7.44435 15.7991L8.11602 11.7691L6.88268 11.5641ZM7.64935 17.2916H7.82768V16.0416H7.65018L7.64935 17.2916ZM10.4285 15.9L12.5243 12.7558L11.4843 12.0625L9.38852 15.2066L10.4285 15.9ZM13.391 12.2916H16.666V11.0416H13.391V12.2916ZM17.291 11.6666V4.99998H16.041V11.6666H17.291ZM3.28518 4.54998L2.28518 9.54998L3.51018 9.79581L4.51018 4.79581L3.28518 4.55081V4.54998ZM12.5243 12.7558C12.6194 12.6131 12.7483 12.4969 12.8995 12.4159C13.0507 12.3349 13.2195 12.2925 13.391 12.2925V11.0425C12.6243 11.0425 11.9093 11.425 11.4843 12.0625L12.5243 12.7558ZM6.21102 15.5933C6.17629 15.8022 6.18746 16.0169 6.24375 16.221C6.30004 16.4251 6.4001 16.6145 6.53697 16.7761C6.67385 16.9376 6.84425 17.0674 7.03635 17.1564C7.22844 17.2455 7.43762 17.2916 7.64935 17.2916L7.65018 16.0416C7.61998 16.0416 7.58931 16.0349 7.56193 16.0222C7.53455 16.0094 7.51026 15.9909 7.49076 15.9678C7.47126 15.9447 7.45701 15.9177 7.44899 15.8886C7.44098 15.8595 7.43939 15.8289 7.44435 15.7991L6.21102 15.5933ZM4.53268 11.0425C3.87435 11.0425 3.38268 10.4408 3.51102 9.79665L2.28518 9.55081C2.21887 9.88324 2.22712 10.2271 2.30935 10.5559C2.39158 10.8848 2.54574 11.1913 2.76072 11.4534C2.97569 11.7154 3.24613 11.9266 3.55254 12.0715C3.85896 12.2165 4.19371 12.2917 4.53268 12.2916V11.0416V11.0425ZM5.53268 2.70831C5.00293 2.70821 4.4895 2.89248 4.07974 3.22825C3.66998 3.56401 3.38921 4.03137 3.28518 4.55081L4.51018 4.79665C4.55742 4.56032 4.68515 4.34767 4.87159 4.19496C5.05804 4.04224 5.29167 3.95807 5.53268 3.95831V2.70831ZM7.82768 17.2916C8.34213 17.2916 8.84861 17.1654 9.30217 16.9226C9.75573 16.6799 10.1423 16.3289 10.4277 15.9008L9.38852 15.2066C9.21723 15.4636 8.98513 15.6751 8.71284 15.8208C8.44055 15.9664 8.13649 16.0418 7.82768 16.0416V17.2916ZM14.9993 3.95831C15.5743 3.95831 16.041 4.42498 16.041 4.99998H17.291C17.291 4.39219 17.0496 3.8093 16.6198 3.37953C16.19 2.94976 15.6071 2.70831 14.9993 2.70831V3.95831Z" fill="#333333"/>
<path d="M13.332 11.6667V3.33341" stroke="#333333" stroke-width="1.25"/>
</svg>
