<svg width="67" height="67" viewBox="0 0 67 67" fill="none" xmlns="http://www.w3.org/2000/svg">
<g clip-path="url(#clip0_870_843)">
<path d="M67 33.5C67 14.9986 52.0014 0 33.5 0C14.9986 0 0 14.9983 0 33.5C0 50.2207 12.2505 64.08 28.2656 66.593V43.1836H19.7598V33.5H28.2656V26.1195C28.2656 17.7236 33.2671 13.0859 40.9189 13.0859C44.5843 13.0859 48.418 13.7402 48.418 13.7402V21.9844H44.1938C40.032 21.9844 38.7344 24.5668 38.7344 27.2161V33.5H48.0254L46.5401 43.1836H38.7344V66.593C54.7495 64.08 67 50.221 67 33.5Z" fill="#1877F2"/>
<path d="M46.5401 43.1836L48.0254 33.5H38.7344V27.2161C38.7344 24.5665 40.0322 21.9844 44.1938 21.9844H48.418V13.7402C48.418 13.7402 44.5843 13.0859 40.9189 13.0859C33.2671 13.0859 28.2656 17.7236 28.2656 26.1195V33.5H19.7598V43.1836H28.2656V66.593C29.9972 66.8644 31.7473 67.0005 33.5 67C35.2527 67.0005 37.0028 66.8645 38.7344 66.593V43.1836H46.5401Z" fill="white"/>
</g>
<defs>
<clipPath id="clip0_870_843">
<rect width="67" height="67" fill="white"/>
</clipPath>
</defs>
</svg>
