<svg width="20" height="20" viewBox="0 0 20 20" fill="none" xmlns="http://www.w3.org/2000/svg">
<path d="M14.3664 11.9797C14.2043 12.8849 13.7688 13.7188 13.1185 14.369C12.4681 15.0192 11.6342 15.4545 10.7289 15.6164C10.6945 15.6219 10.6598 15.6248 10.625 15.625C10.4682 15.625 10.3172 15.566 10.2018 15.4598C10.0865 15.3536 10.0153 15.208 10.0023 15.0517C9.98933 14.8955 10.0355 14.7401 10.1318 14.6163C10.228 14.4926 10.3673 14.4095 10.5219 14.3836C11.8164 14.1656 12.9148 13.0672 13.1344 11.7703C13.1621 11.6068 13.2537 11.4611 13.3889 11.3651C13.5242 11.2691 13.692 11.2308 13.8555 11.2586C14.019 11.2864 14.1647 11.3779 14.2607 11.5132C14.3566 11.6484 14.395 11.8162 14.3672 11.9797H14.3664ZM16.875 11.25C16.875 13.0734 16.1507 14.822 14.8614 16.1114C13.572 17.4007 11.8234 18.125 10 18.125C8.17664 18.125 6.42795 17.4007 5.13864 16.1114C3.84933 14.822 3.125 13.0734 3.125 11.25C3.125 9.06875 3.98438 6.83828 5.67656 4.62109C5.73013 4.55088 5.79796 4.49283 5.87559 4.45074C5.95323 4.40866 6.0389 4.3835 6.12696 4.37693C6.21502 4.37036 6.30347 4.38253 6.38649 4.41263C6.46951 4.44273 6.54521 4.49008 6.60859 4.55156L8.49297 6.38046L10.2117 1.66093C10.2461 1.5668 10.3025 1.48231 10.3764 1.41457C10.4502 1.34684 10.5392 1.29785 10.636 1.27173C10.7327 1.24561 10.8343 1.24313 10.9322 1.2645C11.0301 1.28588 11.1214 1.33047 11.1984 1.39453C12.907 2.8125 16.875 6.60546 16.875 11.25ZM15.625 11.25C15.625 7.64921 12.8289 4.5375 11.0773 2.94296L9.3375 7.71406C9.30179 7.81205 9.24213 7.89955 9.16395 7.96858C9.08577 8.03761 8.99155 8.08598 8.88989 8.10928C8.78823 8.13258 8.68236 8.13007 8.58192 8.10197C8.48148 8.07388 8.38966 8.02109 8.31484 7.94843L6.25469 5.95C5.00703 7.75078 4.375 9.53125 4.375 11.25C4.375 12.7418 4.96763 14.1726 6.02252 15.2275C7.07742 16.2824 8.50816 16.875 10 16.875C11.4918 16.875 12.9226 16.2824 13.9775 15.2275C15.0324 14.1726 15.625 12.7418 15.625 11.25Z" fill="#333333"/>
</svg>
