<svg width="35" height="35" viewBox="0 0 35 35" fill="none" xmlns="http://www.w3.org/2000/svg">
<path d="M17.4453 1.09375C10.2812 1.09375 4.21094 5.6875 1.96875 12.0312H32.9219C30.6797 5.6875 24.6094 1.09375 17.4453 1.09375Z" fill="#3E4347"/>
<path d="M17.4453 33.9062C24.6094 33.9062 30.6797 29.3672 32.9219 22.9688H1.96875C4.21094 29.3672 10.2812 33.9062 17.4453 33.9062Z" fill="#FFE62E"/>
<path d="M1.96875 12.0312C1.36719 13.7266 1.03906 15.5859 1.03906 17.5C1.03906 19.4141 1.36719 21.2734 1.96875 22.9688H32.9219C33.5234 21.2734 33.8516 19.4141 33.8516 17.5C33.8516 15.5859 33.5234 13.7266 32.9219 12.0312H1.96875Z" fill="#ED4C5C"/>
</svg>
