<svg width="82" height="82" viewBox="0 0 82 82" fill="none" xmlns="http://www.w3.org/2000/svg">
<path d="M3.25769 27.4699L2.7846 28.8041H4.2002H77.4614H78.877L78.4039 27.4699C72.9599 12.1168 58.2234 1 40.8308 1C23.4381 1 8.70172 12.1168 3.25769 27.4699Z" fill="#3E4347" stroke="white" stroke-width="2"/>
<path d="M78.4048 53.9399L78.8729 52.6082H77.4614H4.2002H2.78864L3.2568 53.9399C8.70175 69.428 23.442 80.4123 40.8308 80.4123C58.2196 80.4123 72.9598 69.428 78.4048 53.9399Z" fill="#FFE62E" stroke="white" stroke-width="2"/>
<path d="M4.20042 26.8041H3.49494L3.25834 27.4688C1.79599 31.5767 1 36.0768 1 40.7062C1 45.3356 1.79599 49.8357 3.25834 53.9436L3.49494 54.6083H4.20042H77.4616H78.1671L78.4037 53.9436C79.866 49.8357 80.662 45.3356 80.662 40.7062C80.662 36.0768 79.866 31.5767 78.4037 27.4688L78.1671 26.8041H77.4616H4.20042Z" fill="#EC3A4C" stroke="white" stroke-width="2"/>
</svg>
