<svg width="24" height="24" viewBox="0 0 24 24" fill="none" xmlns="http://www.w3.org/2000/svg">
<g clip-path="url(#clip0_878_2199)">
<path d="M23.4453 12.2245C23.4453 11.2413 23.3655 10.5237 23.1928 9.77963H11.9648V14.2176H18.5554C18.4226 15.3205 17.7051 16.9815 16.1105 18.0976L16.0882 18.2461L19.6382 20.9963L19.8842 21.0209C22.143 18.9347 23.4453 15.8653 23.4453 12.2245Z" fill="#4285F4"/>
<path d="M11.9645 23.9176C15.1933 23.9176 17.9039 22.8545 19.8838 21.0209L16.1101 18.0976C15.1003 18.8018 13.7449 19.2934 11.9645 19.2934C8.80204 19.2934 6.11798 17.2074 5.16119 14.324L5.02094 14.3359L1.32952 17.1927L1.28125 17.3269C3.24778 21.2334 7.2872 23.9176 11.9645 23.9176Z" fill="#34A853"/>
<path d="M5.15942 14.324C4.90696 13.5799 4.76085 12.7826 4.76085 11.9588C4.76085 11.1349 4.90696 10.3377 5.14614 9.59359L5.13945 9.43511L1.40177 6.53239L1.27948 6.59056C0.468975 8.21166 0.00390625 10.0321 0.00390625 11.9588C0.00390625 13.8855 0.468975 15.7058 1.27948 17.3269L5.15942 14.324Z" fill="#FBBC05"/>
<path d="M11.9645 4.62403C14.21 4.62403 15.7248 5.59402 16.5885 6.40461L19.9635 3.10928C17.8907 1.1826 15.1933 0 11.9645 0C7.2872 0 3.24778 2.68406 1.28125 6.59056L5.14791 9.59359C6.11798 6.7102 8.80204 4.62403 11.9645 4.62403Z" fill="#EB4335"/>
</g>
<defs>
<clipPath id="clip0_878_2199">
<rect width="23.46" height="24" fill="white"/>
</clipPath>
</defs>
</svg>
