<svg width="15" height="12" viewBox="0 0 15 12" fill="none" xmlns="http://www.w3.org/2000/svg">
<path d="M13.7551 6.48979H0.699413C0.513918 6.48979 0.336019 6.40433 0.204853 6.25219C0.0736879 6.10006 0 5.89372 0 5.67857C0 5.46342 0.0736879 5.25708 0.204853 5.10495C0.336019 4.95281 0.513918 4.86735 0.699413 4.86735H13.7551C13.9406 4.86735 14.1185 4.95281 14.2497 5.10495C14.3809 5.25708 14.4545 5.46342 14.4545 5.67857C14.4545 5.89372 14.3809 6.10006 14.2497 6.25219C14.1185 6.40433 13.9406 6.48979 13.7551 6.48979ZM13.7551 1.62245H0.699413C0.513918 1.62245 0.336019 1.53698 0.204853 1.38485C0.0736879 1.23271 0 1.02637 0 0.811224C0 0.596074 0.0736879 0.389736 0.204853 0.237602C0.336019 0.0854679 0.513918 0 0.699413 0H13.7551C13.9406 0 14.1185 0.0854679 14.2497 0.237602C14.3809 0.389736 14.4545 0.596074 14.4545 0.811224C14.4545 1.02637 14.3809 1.23271 14.2497 1.38485C14.1185 1.53698 13.9406 1.62245 13.7551 1.62245ZM13.7551 11.3571H0.699413C0.513918 11.3571 0.336019 11.2717 0.204853 11.1195C0.0736879 10.9674 0 10.7611 0 10.5459C0 10.3308 0.0736879 10.1244 0.204853 9.97229C0.336019 9.82016 0.513918 9.73469 0.699413 9.73469H13.7551C13.9406 9.73469 14.1185 9.82016 14.2497 9.97229C14.3809 10.1244 14.4545 10.3308 14.4545 10.5459C14.4545 10.7611 14.3809 10.9674 14.2497 11.1195C14.1185 11.2717 13.9406 11.3571 13.7551 11.3571Z" fill="white"/>
</svg>
