<svg width="70" height="70" viewBox="0 0 70 70" fill="none" xmlns="http://www.w3.org/2000/svg">
<path fill-rule="evenodd" clip-rule="evenodd" d="M35 58.3333C47.8873 58.3333 58.3333 47.8873 58.3333 35C58.3333 22.1127 47.8873 11.6667 35 11.6667C22.1127 11.6667 11.6667 22.1127 11.6667 35C11.6667 47.8873 22.1127 58.3333 35 58.3333ZM35 61.25C49.4973 61.25 61.25 49.4973 61.25 35C61.25 20.5027 49.4973 8.75 35 8.75C20.5027 8.75 8.75 20.5027 8.75 35C8.75 49.4973 20.5027 61.25 35 61.25Z" fill="#EC3A4C"/>
<path fill-rule="evenodd" clip-rule="evenodd" d="M24.3472 40.8333C26.6149 46.4216 30.793 49.5833 35.0003 49.5833C39.209 49.5833 43.3857 46.4216 45.6534 40.8333H24.3472ZM35.0003 52.5C29.1115 52.5 24.0074 48.055 21.499 41.5625C21.4745 41.4998 21.4502 41.4371 21.4261 41.3743C20.7757 39.6375 22.167 37.9166 24.0234 37.9166H45.9786C47.8351 37.9166 49.2278 39.6375 48.5744 41.3743C48.5509 41.4371 48.5271 41.4998 48.503 41.5625C45.9932 48.055 40.889 52.5 35.0003 52.5Z" fill="#EC3A4C"/>
<path d="M31.0647 32.728C31.2543 32.2059 31.1974 31.5686 31.0414 30.9882C30.8535 30.3197 30.5526 29.6884 30.1518 29.1215C29.3045 27.9125 27.9001 26.8028 26.0028 26.7211C24.0384 26.6394 22.5714 27.8863 21.6672 29.209C21.2329 29.8457 20.8916 30.541 20.6536 31.274C20.4451 31.9244 20.3343 32.5894 20.4072 33.1217C20.4239 33.2431 20.471 33.3583 20.544 33.4566C20.6171 33.555 20.7137 33.6334 20.825 33.6845C20.9364 33.7357 21.0588 33.758 21.181 33.7493C21.3032 33.7407 21.4213 33.7014 21.5243 33.635C22.1076 33.2617 22.7186 32.7498 23.2845 32.2773C23.5411 32.0615 23.7905 31.8544 24.0209 31.6721C24.8405 31.0246 25.4793 30.6557 26.0072 30.6294C26.5103 30.6046 27.0907 30.8919 27.8228 31.4403C28.0853 31.6357 28.3391 31.8428 28.6016 32.0586L28.8859 32.2905C29.2418 32.5778 29.6209 32.8723 30.003 33.1028C30.0952 33.1583 30.1985 33.1928 30.3056 33.2037C30.4127 33.2147 30.5208 33.2017 30.6223 33.1659C30.7238 33.1301 30.8161 33.0722 30.8926 32.9965C30.9691 32.9208 31.0278 32.8291 31.0647 32.728ZM38.8099 32.728C38.6203 32.2059 38.6786 31.5686 38.8347 30.9882C38.998 30.3815 39.2999 29.7296 39.7243 29.1215C40.5701 27.9125 41.9759 26.8028 43.8732 26.7211C45.8361 26.6394 47.3047 27.8863 48.2089 29.209C48.6668 29.8798 49.008 30.6061 49.2224 31.274C49.4295 31.9244 49.5403 32.5894 49.4674 33.1217C49.4505 33.2429 49.4035 33.3578 49.3305 33.456C49.2576 33.5542 49.1611 33.6324 49.05 33.6835C48.9389 33.7347 48.8167 33.757 48.6947 33.7485C48.5727 33.7401 48.4548 33.701 48.3518 33.635C47.7684 33.2617 47.1559 32.7498 46.5916 32.2773C46.3487 32.0724 46.1032 31.8706 45.8551 31.6721C45.0341 31.0246 44.3968 30.6557 43.8674 30.6294C43.3643 30.6046 42.7839 30.8919 42.0532 31.4403C41.7907 31.6357 41.537 31.8428 41.2745 32.0586L40.9886 32.2905C40.6353 32.5858 40.2626 32.8571 39.873 33.1028C39.7808 33.1586 39.6774 33.1933 39.5701 33.2044C39.4629 33.2154 39.3545 33.2026 39.2528 33.1668C39.1512 33.1309 39.0587 33.073 38.9821 32.9971C38.9055 32.9212 38.8467 32.8293 38.8099 32.728Z" fill="#EC3A4C"/>
</svg>
