<svg width="30" height="30" viewBox="0 0 30 30" fill="none" xmlns="http://www.w3.org/2000/svg">
<path opacity="0.5" d="M2.5 15C2.5 8.09625 8.09625 2.5 15 2.5C21.9037 2.5 27.5 8.09625 27.5 15C27.5 21.9037 21.9037 27.5 15 27.5C8.09625 27.5 2.5 21.9037 2.5 15Z" fill="#EC3A4C"/>
<path fill-rule="evenodd" clip-rule="evenodd" d="M14.6475 9.01874C14.7086 8.78384 14.6762 8.53441 14.5571 8.32291C14.4381 8.11141 14.2416 7.95433 14.0091 7.88471C13.7766 7.81508 13.5261 7.83835 13.3104 7.9496C13.0947 8.06086 12.9306 8.25143 12.8525 8.48124L11.9275 11.5625H8.75C8.50136 11.5625 8.2629 11.6613 8.08709 11.8371C7.91127 12.0129 7.8125 12.2514 7.8125 12.5C7.8125 12.7486 7.91127 12.9871 8.08709 13.1629C8.2629 13.3387 8.50136 13.4375 8.75 13.4375H11.365L10.4275 16.5625H7.5C7.25136 16.5625 7.0129 16.6613 6.83709 16.8371C6.66127 17.0129 6.5625 17.2514 6.5625 17.5C6.5625 17.7486 6.66127 17.9871 6.83709 18.1629C7.0129 18.3387 7.25136 18.4375 7.5 18.4375H9.865L9.1025 20.98C9.0397 21.2154 9.071 21.466 9.18977 21.6787C9.30855 21.8914 9.50547 22.0495 9.73881 22.1196C9.97216 22.1896 10.2236 22.1661 10.4399 22.0539C10.6562 21.9418 10.8203 21.7498 10.8975 21.5187L11.8225 18.4375H16.115L15.3525 20.98C15.2897 21.2154 15.321 21.466 15.4398 21.6787C15.5585 21.8914 15.7555 22.0495 15.9888 22.1196C16.2222 22.1896 16.4736 22.1661 16.6899 22.0539C16.9062 21.9418 17.0703 21.7498 17.1475 21.5187L18.0725 18.4375H21.25C21.4986 18.4375 21.7371 18.3387 21.9129 18.1629C22.0887 17.9871 22.1875 17.7486 22.1875 17.5C22.1875 17.2514 22.0887 17.0129 21.9129 16.8371C21.7371 16.6613 21.4986 16.5625 21.25 16.5625H18.635L19.5725 13.4375H22.5C22.7486 13.4375 22.9871 13.3387 23.1629 13.1629C23.3387 12.9871 23.4375 12.7486 23.4375 12.5C23.4375 12.2514 23.3387 12.0129 23.1629 11.8371C22.9871 11.6613 22.7486 11.5625 22.5 11.5625H20.135L20.8975 9.01874C20.9586 8.78384 20.9262 8.53441 20.8071 8.32291C20.6881 8.11141 20.4916 7.95433 20.2591 7.88471C20.0266 7.81508 19.7761 7.83835 19.5604 7.9496C19.3447 8.06086 19.1806 8.25143 19.1025 8.48124L18.1775 11.5625H13.885L14.6475 9.01874ZM17.615 13.4375L16.6775 16.5625H12.385L13.3225 13.4375H17.615Z" fill="#EC3A4C"/>
</svg>
