<svg width="24" height="24" viewBox="0 0 24 24" fill="none" xmlns="http://www.w3.org/2000/svg">
<path d="M12 7.5C11.11 7.5 10.24 7.76392 9.49993 8.25839C8.75991 8.75285 8.18314 9.45566 7.84254 10.2779C7.50195 11.1002 7.41283 12.005 7.58647 12.8779C7.7601 13.7508 8.18868 14.5526 8.81802 15.182C9.44736 15.8113 10.2492 16.2399 11.1221 16.4135C11.995 16.5872 12.8998 16.4981 13.7221 16.1575C14.5443 15.8169 15.2471 15.2401 15.7416 14.5001C16.2361 13.76 16.5 12.89 16.5 12C16.5 10.8065 16.0259 9.66193 15.182 8.81802C14.3381 7.97411 13.1935 7.5 12 7.5ZM12 15C11.4067 15 10.8266 14.8241 10.3333 14.4944C9.83994 14.1648 9.45542 13.6962 9.22836 13.1481C9.0013 12.5999 8.94189 11.9967 9.05764 11.4147C9.1734 10.8328 9.45912 10.2982 9.87868 9.87868C10.2982 9.45912 10.8328 9.1734 11.4147 9.05764C11.9967 8.94189 12.5999 9.0013 13.1481 9.22836C13.6962 9.45542 14.1648 9.83994 14.4944 10.3333C14.8241 10.8266 15 11.4067 15 12C14.9975 12.7949 14.6807 13.5565 14.1186 14.1186C13.5565 14.6807 12.7949 14.9975 12 15ZM16.125 2.625H7.875C6.48261 2.625 5.14726 3.17812 4.16269 4.16269C3.17812 5.14726 2.625 6.48261 2.625 7.875V16.125C2.625 17.5174 3.17812 18.8527 4.16269 19.8373C5.14726 20.8219 6.48261 21.375 7.875 21.375H16.125C17.5174 21.375 18.8527 20.8219 19.8373 19.8373C20.8219 18.8527 21.375 17.5174 21.375 16.125V7.875C21.375 6.48261 20.8219 5.14726 19.8373 4.16269C18.8527 3.17812 17.5174 2.625 16.125 2.625ZM19.875 16.125C19.875 16.6175 19.778 17.1051 19.5895 17.5601C19.4011 18.015 19.1249 18.4284 18.7766 18.7766C18.4284 19.1249 18.015 19.4011 17.5601 19.5895C17.1051 19.778 16.6175 19.875 16.125 19.875H7.875C7.38254 19.875 6.89491 19.778 6.43994 19.5895C5.98497 19.4011 5.57157 19.1249 5.22335 18.7766C4.87513 18.4284 4.59891 18.015 4.41045 17.5601C4.222 17.1051 4.125 16.6175 4.125 16.125V7.875C4.125 6.88044 4.52009 5.92661 5.22335 5.22335C5.92661 4.52009 6.88044 4.125 7.875 4.125H16.125C16.6175 4.125 17.1051 4.222 17.5601 4.41045C18.015 4.59891 18.4284 4.87513 18.7766 5.22335C19.1249 5.57157 19.4011 5.98497 19.5895 6.43994C19.778 6.89491 19.875 7.38254 19.875 7.875V16.125ZM18 7.125C18 7.3475 17.934 7.56501 17.8104 7.75002C17.6868 7.93502 17.5111 8.07922 17.3055 8.16436C17.1 8.24951 16.8738 8.27179 16.6555 8.22838C16.4373 8.18498 16.2368 8.07783 16.0795 7.9205C15.9222 7.76316 15.815 7.56271 15.7716 7.34448C15.7282 7.12625 15.7505 6.90005 15.8356 6.69448C15.9208 6.48891 16.065 6.31321 16.25 6.1896C16.435 6.06598 16.6525 6 16.875 6C17.1734 6 17.4595 6.11853 17.6705 6.3295C17.8815 6.54048 18 6.82663 18 7.125Z" fill="#8A8A8A"/>
</svg>
