<svg width="29" height="29" viewBox="0 0 29 29" fill="none" xmlns="http://www.w3.org/2000/svg">
<path d="M9.76667 3H19.5667C23.3 3 26.3333 6.03333 26.3333 9.76667V19.5667C26.3333 21.3613 25.6204 23.0824 24.3514 24.3514C23.0824 25.6204 21.3613 26.3333 19.5667 26.3333H9.76667C6.03333 26.3333 3 23.3 3 19.5667V9.76667C3 7.97204 3.71291 6.25091 4.98191 4.98191C6.25091 3.71291 7.97204 3 9.76667 3ZM9.53333 5.33333C8.41942 5.33333 7.35114 5.77583 6.56349 6.56349C5.77583 7.35114 5.33333 8.41942 5.33333 9.53333V19.8C5.33333 22.1217 7.21167 24 9.53333 24H19.8C20.9139 24 21.9822 23.5575 22.7699 22.7699C23.5575 21.9822 24 20.9139 24 19.8V9.53333C24 7.21167 22.1217 5.33333 19.8 5.33333H9.53333ZM20.7917 7.08333C21.1784 7.08333 21.5494 7.23698 21.8229 7.51047C22.0964 7.78396 22.25 8.15489 22.25 8.54167C22.25 8.92844 22.0964 9.29937 21.8229 9.57286C21.5494 9.84635 21.1784 10 20.7917 10C20.4049 10 20.034 9.84635 19.7605 9.57286C19.487 9.29937 19.3333 8.92844 19.3333 8.54167C19.3333 8.15489 19.487 7.78396 19.7605 7.51047C20.034 7.23698 20.4049 7.08333 20.7917 7.08333ZM14.6667 8.83333C16.2138 8.83333 17.6975 9.44792 18.7915 10.5419C19.8854 11.6358 20.5 13.1196 20.5 14.6667C20.5 16.2138 19.8854 17.6975 18.7915 18.7915C17.6975 19.8854 16.2138 20.5 14.6667 20.5C13.1196 20.5 11.6358 19.8854 10.5419 18.7915C9.44792 17.6975 8.83333 16.2138 8.83333 14.6667C8.83333 13.1196 9.44792 11.6358 10.5419 10.5419C11.6358 9.44792 13.1196 8.83333 14.6667 8.83333ZM14.6667 11.1667C13.7384 11.1667 12.8482 11.5354 12.1918 12.1918C11.5354 12.8482 11.1667 13.7384 11.1667 14.6667C11.1667 15.5949 11.5354 16.4852 12.1918 17.1415C12.8482 17.7979 13.7384 18.1667 14.6667 18.1667C15.5949 18.1667 16.4852 17.7979 17.1415 17.1415C17.7979 16.4852 18.1667 15.5949 18.1667 14.6667C18.1667 13.7384 17.7979 12.8482 17.1415 12.1918C16.4852 11.5354 15.5949 11.1667 14.6667 11.1667Z" fill="white"/>
</svg>
