<svg width="30" height="30" viewBox="0 0 30 30" fill="none" xmlns="http://www.w3.org/2000/svg">
<path d="M15 26.25C21.9036 26.25 27.5 20.6536 27.5 13.75C27.5 6.84644 21.9036 1.25 15 1.25C8.09644 1.25 2.5 6.84644 2.5 13.75C2.5 20.6536 8.09644 26.25 15 26.25Z" fill="#FFF59D"/>
<path d="M23.1248 13.75C23.1248 8.9375 18.9998 5.125 14.0623 5.6875C10.3123 6.125 7.31233 9.125 6.93733 12.875C6.62483 15.75 7.81233 18.3125 9.81233 19.9375C10.6873 20.6875 11.2498 21.75 11.2498 22.9375V23.125H18.7498V23.0625C18.7498 21.9375 19.2498 20.8125 20.1248 20.0625C21.9373 18.5625 23.1248 16.3125 23.1248 13.75Z" fill="#FBC02D"/>
<path d="M19.125 12.625L17.25 11.375C17.0625 11.25 16.75 11.25 16.5625 11.375L15 12.375L13.5 11.375C13.3125 11.25 13 11.25 12.8125 11.375L10.9375 12.625C10.8125 12.75 10.6875 12.875 10.6875 13.0625C10.6875 13.25 10.6875 13.4375 10.8125 13.5625L13.1875 16.5V23.125H14.4375V16.25C14.4375 16.125 14.375 16 14.3125 15.875L12.25 13.3125L13.1875 12.6875L14.6875 13.6875C14.875 13.8125 15.1875 13.8125 15.375 13.6875L16.875 12.6875L17.8125 13.3125L15.75 15.875C15.6875 16 15.625 16.125 15.625 16.25V23.125H16.875V16.5L19.25 13.5625C19.375 13.4375 19.4375 13.25 19.375 13.0625C19.3125 12.875 19.25 12.6875 19.125 12.625Z" fill="#FFF59D"/>
<path d="M15 29.375C16.0355 29.375 16.875 28.5355 16.875 27.5C16.875 26.4645 16.0355 25.625 15 25.625C13.9645 25.625 13.125 26.4645 13.125 27.5C13.125 28.5355 13.9645 29.375 15 29.375Z" fill="#5C6BC0"/>
<path d="M16.25 28.125H13.75C12.375 28.125 11.25 27 11.25 25.625V22.5H18.75V25.625C18.75 27 17.625 28.125 16.25 28.125Z" fill="#9FA8DA"/>
<path d="M18.75 25.625L11.5 26.625C11.6875 27.0625 12.0625 27.5 12.5 27.75L18.375 26.9375C18.625 26.5625 18.75 26.125 18.75 25.625ZM11.25 24.1875V25.4375L18.75 24.375V23.125L11.25 24.1875Z" fill="#5C6BC0"/>
</svg>
