<svg width="20" height="20" viewBox="0 0 20 20" fill="none" xmlns="http://www.w3.org/2000/svg">
<g clip-path="url(#clip0_1054_74)">
<path d="M16.6666 1.66667H7.77775V4.44445H8.88886V2.77778H16.6666C17 2.77778 17.2222 3.00001 17.2222 3.33334V9.44445C17.2222 9.77778 17 10 16.6666 10H9.44442V13.8889H6.49997L4.44442 15.5V13.8889H2.77775C2.44442 13.8889 2.2222 13.6667 2.2222 13.3333V7.22223C2.2222 6.88889 2.44442 6.66667 2.77775 6.66667H9.99997V5.55556H2.77775C1.83331 5.55556 1.11108 6.27778 1.11108 7.22223V13.3333C1.11108 14.2778 1.83331 15 2.77775 15H3.33331V17.8333L6.83331 15H10.5555V11.1111H16.6666C17.6111 11.1111 18.3333 10.3889 18.3333 9.44445V3.33334C18.3333 2.38889 17.6111 1.66667 16.6666 1.66667Z" fill="#D52B3B"/>
<path d="M3.44531 12.7223H4.77865L5.11198 11.8334H6.8342L7.16753 12.7223H8.50087L6.61198 7.77783H5.27865L3.44531 12.7223ZM5.94531 9.16672L6.50087 10.8889H5.38976L5.94531 9.16672Z" fill="#D52B3B"/>
<path d="M11.1111 9.44444C11.7222 9.44444 12.5555 9.27777 13.3333 8.88888C14.1111 9.27777 15 9.44444 15.5555 9.44444V8.33333C15.5555 8.33333 15 8.33333 14.3889 8.11111C15.0555 7.44444 15.5555 6.44444 15.5555 4.99999V4.44444H13.8889V3.33333H12.7778V4.44444H11.1111V5.55555H14.3889C14.2778 6.55555 13.8333 7.16666 13.3333 7.55555C13 7.27777 12.6666 6.88888 12.4444 6.38888H11.2778C11.5 7.11111 11.8333 7.66666 12.2778 8.11111C11.7222 8.33333 11.2222 8.33333 11.1111 8.33333V9.44444Z" fill="#D52B3B"/>
</g>
<defs>
<clipPath id="clip0_1054_74">
<rect width="20" height="20" fill="white"/>
</clipPath>
</defs>
</svg>
