<svg width="20" height="20" viewBox="0 0 20 20" fill="none" xmlns="http://www.w3.org/2000/svg">
<path d="M8.67287 4.63333L3.33398 10L8.67287 15.3667C8.72109 15.43 8.78235 15.4822 8.8525 15.5198C8.92266 15.5574 9.00007 15.5794 9.07949 15.5845C9.15892 15.5896 9.2385 15.5775 9.31287 15.5492C9.38723 15.5208 9.45463 15.4768 9.5105 15.4201C9.56637 15.3634 9.60942 15.2954 9.63672 15.2207C9.66402 15.1459 9.67493 15.0661 9.66873 14.9868C9.66253 14.9075 9.63935 14.8304 9.60077 14.7608C9.56219 14.6911 9.5091 14.6306 9.4451 14.5833L5.45065 10.5556L16.0784 10.5556C16.2258 10.5556 16.3671 10.497 16.4713 10.3928C16.5755 10.2886 16.634 10.1473 16.634 10C16.634 9.85266 16.5755 9.71135 16.4713 9.60716C16.3671 9.50297 16.2258 9.44444 16.0784 9.44444L5.45065 9.44444L9.4451 5.41667C9.54897 5.31205 9.60704 5.17046 9.60652 5.02303C9.60599 4.87561 9.54693 4.73443 9.44232 4.63055C9.3377 4.52668 9.19611 4.46861 9.04869 4.46913C8.90126 4.46965 8.76008 4.52872 8.65621 4.63333L8.67287 4.63333Z" fill="white"/>
</svg>
