<svg width="14" height="14" viewBox="0 0 14 14" fill="none" xmlns="http://www.w3.org/2000/svg">
<path d="M6.0706 3.24333L2.33337 6.99999L6.0706 10.7567C6.10435 10.801 6.14723 10.8375 6.19634 10.8638C6.24544 10.8902 6.29963 10.9056 6.35523 10.9092C6.41083 10.9127 6.46654 10.9043 6.51859 10.8844C6.57064 10.8645 6.61782 10.8337 6.65693 10.7941C6.69605 10.7544 6.72618 10.7068 6.74529 10.6544C6.7644 10.6021 6.77204 10.5463 6.7677 10.4908C6.76336 10.4352 6.74713 10.3812 6.72012 10.3325C6.69311 10.2838 6.65595 10.2414 6.61115 10.2083L3.81504 7.38888L11.2545 7.38888C11.3576 7.38888 11.4565 7.34791 11.5295 7.27498C11.6024 7.20205 11.6434 7.10313 11.6434 6.99999C11.6434 6.89685 11.6024 6.79794 11.5295 6.72501C11.4565 6.65207 11.3576 6.6111 11.2545 6.6111L3.81504 6.6111L6.61115 3.79166C6.68387 3.71843 6.72451 3.61931 6.72415 3.51612C6.72378 3.41292 6.68244 3.31409 6.60921 3.24138C6.53598 3.16867 6.43686 3.12802 6.33367 3.12839C6.23047 3.12875 6.13164 3.1701 6.05893 3.24333L6.0706 3.24333Z" fill="white"/>
</svg>
