<svg width="16" height="16" viewBox="0 0 16 16" fill="none" xmlns="http://www.w3.org/2000/svg">
<path d="M10.4997 6.33335L9.88301 6.23085C9.86812 6.32038 9.87292 6.41208 9.89705 6.49957C9.92119 6.58706 9.9641 6.66825 10.0228 6.73748C10.0815 6.80672 10.1545 6.86234 10.2369 6.90048C10.3192 6.93862 10.4089 6.95837 10.4997 6.95835V6.33335ZM1.33301 6.33335V5.70835C1.16725 5.70835 1.00828 5.7742 0.891066 5.89141C0.773856 6.00862 0.708008 6.16759 0.708008 6.33335H1.33301ZM2.99967 15.2917H12.4663V14.0417H2.99967V15.2917ZM13.4663 5.70835H10.4997V6.95835H13.4663V5.70835ZM11.1163 6.43585L11.788 2.40669L10.5547 2.20085L9.88301 6.23085L11.1163 6.43585ZM10.3497 0.708353H10.1713V1.95835H10.3488L10.3497 0.708353ZM7.57051 2.10002L5.47467 5.24419L6.51467 5.93752L8.61051 2.79335L7.57051 2.10002ZM4.60801 5.70835H1.33301V6.95835H4.60801V5.70835ZM0.708008 6.33335V13H1.95801V6.33335H0.708008ZM14.7138 13.45L15.7138 8.45002L14.4888 8.20419L13.4888 13.2042L14.7138 13.4492V13.45ZM5.47467 5.24419C5.37959 5.38692 5.25073 5.50314 5.09955 5.58411C4.94836 5.66509 4.77951 5.70748 4.60801 5.70752V6.95752C5.37467 6.95752 6.08967 6.57502 6.51467 5.93752L5.47467 5.24419ZM11.788 2.40669C11.8227 2.19783 11.8116 1.98308 11.7553 1.77897C11.699 1.57487 11.5989 1.38546 11.462 1.22393C11.3252 1.06239 11.1548 0.932598 10.9627 0.843563C10.7706 0.754529 10.5614 0.70839 10.3497 0.708353L10.3488 1.95835C10.379 1.95843 10.4097 1.96507 10.4371 1.97782C10.4645 1.99057 10.4888 2.00912 10.5083 2.03219C10.5278 2.05526 10.542 2.08229 10.55 2.11141C10.558 2.14054 10.5596 2.17106 10.5547 2.20085L11.788 2.40669ZM13.4663 6.95752C14.1247 6.95752 14.6163 7.55919 14.488 8.20335L15.7138 8.44919C15.7802 8.11676 15.7719 7.77294 15.6897 7.44409C15.6074 7.11524 15.4533 6.80873 15.2383 6.54665C15.0233 6.28457 14.7529 6.07344 14.4465 5.92848C14.1401 5.78352 13.8053 5.70834 13.4663 5.70835V6.95835V6.95752ZM12.4663 15.2917C12.9961 15.2918 13.5095 15.1075 13.9193 14.7718C14.329 14.436 14.6098 13.9686 14.7138 13.4492L13.4888 13.2034C13.4416 13.4397 13.3139 13.6523 13.1274 13.805C12.941 13.9578 12.7073 14.0419 12.4663 14.0417V15.2917ZM10.1713 0.708353C9.6569 0.70839 9.15042 0.834599 8.69686 1.07737C8.2433 1.32014 7.85669 1.67113 7.57134 2.09919L8.61051 2.79335C8.78179 2.5364 9.01389 2.3249 9.28618 2.17923C9.55848 2.03356 9.86253 1.95824 10.1713 1.95835V0.708353ZM2.99967 14.0417C2.42467 14.0417 1.95801 13.575 1.95801 13H0.708008C0.708008 13.6078 0.94945 14.1907 1.37922 14.6205C1.80899 15.0502 2.39189 15.2917 2.99967 15.2917V14.0417Z" fill="#333333"/>
<path d="M4.66602 6.33325V14.6666" stroke="#333333" stroke-width="1.25"/>
</svg>
