<svg width="20" height="20" viewBox="0 0 20 20" fill="none" xmlns="http://www.w3.org/2000/svg">
<path d="M10.7449 14.5594C10.862 14.6766 10.9278 14.8355 10.9278 15.0012C10.9278 15.1669 10.862 15.3258 10.7449 15.443L9.96833 16.2243C9.1471 17.045 8.03346 17.5059 6.87242 17.5055C5.71138 17.5051 4.59804 17.0436 3.77732 16.2223C2.9566 15.4011 2.49573 14.2874 2.49609 13.1264C2.49646 11.9654 2.95803 10.852 3.77927 10.0313L5.66365 8.14692C6.45246 7.35748 7.51315 6.89932 8.62866 6.86621C9.74418 6.8331 10.8302 7.22753 11.6644 7.9688C11.726 8.02338 11.7762 8.08955 11.8122 8.16353C11.8482 8.23752 11.8692 8.31786 11.8742 8.39998C11.8791 8.48211 11.8678 8.5644 11.8409 8.64215C11.8141 8.71991 11.7721 8.79162 11.7176 8.85318C11.663 8.91473 11.5968 8.96494 11.5228 9.00092C11.4488 9.03691 11.3685 9.05796 11.2864 9.0629C11.2042 9.06783 11.122 9.05654 11.0442 9.02967C10.9664 9.0028 10.8947 8.96088 10.8332 8.9063C10.2373 8.37716 9.46185 8.09564 8.66532 8.11932C7.86879 8.14299 7.1114 8.47006 6.54802 9.03364L4.66365 10.9157C4.07748 11.5018 3.74817 12.2969 3.74817 13.1258C3.74817 13.9548 4.07748 14.7498 4.66365 15.336C5.24982 15.9222 6.04483 16.2515 6.8738 16.2515C7.70277 16.2515 8.49779 15.9222 9.08396 15.336L9.86052 14.5594C9.91857 14.5013 9.9875 14.4552 10.0634 14.4238C10.1392 14.3923 10.2206 14.3761 10.3027 14.3761C10.3848 14.3761 10.4662 14.3923 10.542 14.4238C10.6179 14.4552 10.6869 14.5013 10.7449 14.5594ZM16.2199 3.77818C15.3985 2.95866 14.2856 2.49841 13.1254 2.49841C11.9651 2.49841 10.8522 2.95866 10.0308 3.77818L9.25427 4.55552C9.1371 4.67279 9.07131 4.83181 9.07139 4.99759C9.07146 5.16337 9.13739 5.32233 9.25466 5.4395C9.37194 5.55667 9.53096 5.62246 9.69674 5.62239C9.86251 5.62231 10.0215 5.55639 10.1386 5.43911L10.9152 4.66255C11.5014 4.07638 12.2964 3.74707 13.1254 3.74707C13.9543 3.74707 14.7494 4.07638 15.3355 4.66255C15.9217 5.24872 16.251 6.04374 16.251 6.87271C16.251 7.70168 15.9217 8.49669 15.3355 9.08286L13.4511 10.9688C12.8875 11.5321 12.1299 11.8587 11.3334 11.8819C10.5369 11.9052 9.76154 11.6232 9.16599 11.0938C9.04167 10.9836 8.87865 10.9272 8.7128 10.9372C8.54695 10.9472 8.39185 11.0226 8.28162 11.1469C8.17138 11.2712 8.11506 11.4343 8.12502 11.6001C8.13498 11.766 8.21042 11.9211 8.33474 12.0313C9.1688 12.7728 10.2547 13.1675 11.3702 13.1347C12.4857 13.1018 13.5465 12.644 14.3355 11.8547L16.2199 9.97036C17.0399 9.14894 17.5004 8.03571 17.5004 6.87505C17.5004 5.71439 17.0399 4.60116 16.2199 3.77974V3.77818Z" fill="#333333"/>
</svg>
