<svg width="20" height="20" viewBox="0 0 20 20" fill="none" xmlns="http://www.w3.org/2000/svg">
<path d="M9.9987 10.8333C9.08203 10.8333 8.33203 11.5833 8.33203 12.5C8.33203 13.4167 9.08203 14.1667 9.9987 14.1667C10.9154 14.1667 11.6654 13.4167 11.6654 12.5C11.6654 11.5833 10.9154 10.8333 9.9987 10.8333ZM14.9987 6.66666H14.1654V4.99999C14.1654 2.69999 12.2987 0.833328 9.9987 0.833328C8.0987 0.833328 6.44036 2.11666 5.96536 3.95833C5.8487 4.40833 6.11536 4.85833 6.56536 4.97499C6.67152 5.00255 6.78207 5.00887 6.89068 4.99361C6.99928 4.97835 7.10381 4.9418 7.19826 4.88606C7.29271 4.83032 7.37523 4.75648 7.44109 4.66878C7.50694 4.58108 7.55484 4.48124 7.58203 4.37499C7.7199 3.83873 8.03214 3.3635 8.46961 3.02408C8.90709 2.68466 9.44499 2.5003 9.9987 2.49999C11.3737 2.49999 12.4987 3.62499 12.4987 4.99999V6.66666H4.9987C4.08203 6.66666 3.33203 7.41666 3.33203 8.33333V16.6667C3.33203 17.5833 4.08203 18.3333 4.9987 18.3333H14.9987C15.9154 18.3333 16.6654 17.5833 16.6654 16.6667V8.33333C16.6654 7.41666 15.9154 6.66666 14.9987 6.66666ZM14.9987 15.8333C14.9987 16.2917 14.6237 16.6667 14.1654 16.6667H5.83203C5.3737 16.6667 4.9987 16.2917 4.9987 15.8333V9.16666C4.9987 8.70833 5.3737 8.33333 5.83203 8.33333H14.1654C14.6237 8.33333 14.9987 8.70833 14.9987 9.16666V15.8333Z" fill="#9D9D9D"/>
</svg>
