<svg width="36" height="36" viewBox="0 0 36 36" fill="none" xmlns="http://www.w3.org/2000/svg">
<path opacity="0.2" d="M15.75 28.125L15.75 7.875L5.625 18L15.75 28.125Z" fill="#EC3A4C"/>
<path d="M14.954 28.9208L4.82897 18.7958C4.72437 18.6914 4.64139 18.5673 4.58478 18.4307C4.52816 18.2941 4.49902 18.1478 4.49902 17.9999C4.49902 17.8521 4.52816 17.7057 4.58478 17.5691C4.64139 17.4325 4.72437 17.3085 4.82897 17.204L14.954 7.07897C15.1113 6.92146 15.3118 6.81417 15.5302 6.77069C15.7485 6.72721 15.9749 6.74949 16.1805 6.83471C16.3862 6.91993 16.562 7.06426 16.6856 7.24943C16.8092 7.4346 16.8751 7.65228 16.8749 7.87491L16.8749 16.8749L30.3749 16.8749C30.6733 16.8749 30.9594 16.9934 31.1704 17.2044C31.3814 17.4154 31.4999 17.7015 31.4999 17.9999C31.4999 18.2983 31.3814 18.5844 31.1704 18.7954C30.9594 19.0064 30.6733 19.1249 30.3749 19.1249L16.8749 19.1249L16.8749 28.1249C16.8751 28.3475 16.8092 28.5652 16.6856 28.7504C16.562 28.9356 16.3862 29.0799 16.1805 29.1651C15.9749 29.2503 15.7485 29.2726 15.5302 29.2291C15.3118 29.1856 15.1113 29.0784 14.954 28.9208ZM14.6249 10.5904L7.21538 17.9999L14.6249 25.4094L14.6249 10.5904Z" fill="#EC3A4C"/>
</svg>
