<svg width="36" height="36" viewBox="0 0 36 36" fill="none" xmlns="http://www.w3.org/2000/svg">
<path opacity="0.2" d="M20.25 28.125L20.25 7.875L30.375 18L20.25 28.125Z" fill="#EC3A4C"/>
<path d="M21.046 28.9208L31.171 18.7958C31.2756 18.6914 31.3586 18.5673 31.4152 18.4307C31.4718 18.2941 31.501 18.1478 31.501 17.9999C31.501 17.8521 31.4718 17.7057 31.4152 17.5691C31.3586 17.4325 31.2756 17.3085 31.171 17.204L21.046 7.07897C20.8887 6.92146 20.6882 6.81417 20.4698 6.77069C20.2515 6.72721 20.0251 6.74949 19.8195 6.83471C19.6138 6.91993 19.438 7.06426 19.3144 7.24943C19.1908 7.4346 19.1249 7.65228 19.1251 7.87491L19.1251 16.8749L5.62509 16.8749C5.32672 16.8749 5.04057 16.9934 4.8296 17.2044C4.61862 17.4154 4.50009 17.7015 4.50009 17.9999C4.50009 18.2983 4.61862 18.5844 4.8296 18.7954C5.04057 19.0064 5.32672 19.1249 5.62509 19.1249L19.1251 19.1249L19.1251 28.1249C19.1249 28.3475 19.1908 28.5652 19.3144 28.7504C19.438 28.9356 19.6138 29.0799 19.8195 29.1651C20.0251 29.2503 20.2515 29.2726 20.4698 29.2291C20.6882 29.1856 20.8887 29.0784 21.046 28.9208ZM21.3751 10.5904L28.7846 17.9999L21.3751 25.4094L21.3751 10.5904Z" fill="#EC3A4C"/>
</svg>
