<svg width="24" height="24" viewBox="0 0 24 24" fill="none" xmlns="http://www.w3.org/2000/svg">
<g clip-path="url(#clip0_284_504)">
<path fill-rule="evenodd" clip-rule="evenodd" d="M8.29279 12.707C8.10532 12.5194 8 12.2651 8 12C8 11.7348 8.10532 11.4805 8.29279 11.293L13.9498 5.63598C14.042 5.54047 14.1524 5.46428 14.2744 5.41188C14.3964 5.35947 14.5276 5.33188 14.6604 5.33073C14.7932 5.32957 14.9248 5.35487 15.0477 5.40516C15.1706 5.45544 15.2823 5.52969 15.3762 5.62358C15.4701 5.71747 15.5443 5.82913 15.5946 5.95202C15.6449 6.07492 15.6702 6.2066 15.669 6.33938C15.6679 6.47216 15.6403 6.60338 15.5879 6.72538C15.5355 6.84739 15.4593 6.95773 15.3638 7.04998L10.4138 12L15.3638 16.95C15.5459 17.1386 15.6467 17.3912 15.6445 17.6534C15.6422 17.9156 15.537 18.1664 15.3516 18.3518C15.1662 18.5372 14.9154 18.6424 14.6532 18.6447C14.391 18.6469 14.1384 18.5461 13.9498 18.364L8.29279 12.707Z" fill="#EC3A4C"/>
</g>
<defs>
<clipPath id="clip0_284_504">
<rect width="24" height="24" fill="white"/>
</clipPath>
</defs>
</svg>
