<svg id="Layer_1" data-name="Layer 1" xmlns="http://www.w3.org/2000/svg" viewBox="0 0 25.65533 11.5428"><defs><style>.cls-1{fill:#010101;}.cls-2{fill:#020202;}.cls-3{fill:#e3e3e3;}.cls-4{fill:#fefefe;}.cls-5{fill:#fffdfd;}.cls-6{font-size:1.12923px;font-family:OCRAExtended, OCR A Extended;}</style></defs><title>osd</title><path d="M16.62718,13.57565a1.84342,1.84342,0,0,1-1.765.54862,1.79762,1.79762,0,0,1-1.11641-.63032,1.08489,1.08489,0,0,1-.30713-.89941,8.00129,8.00129,0,0,0-.00027-1.13051,1.33267,1.33267,0,0,1,.6609-1.15895,2.30489,2.30489,0,0,1,1.75864-.29441c.30912.01394.49184.30747.78242.47026,0-.39347-.0005-.77147.00023-1.14948.00032-.16658-.00361-.33356.00648-.49963a.34669.34669,0,0,1,.36373-.3669.3505.3505,0,0,1,.40466.32313,1.66926,1.66926,0,0,1,.01712.26171q.00149,2.24943.00073,4.49886c0,.02631.00036.05264-.00052.07892-.01149.34405-.12028.48957-.37461.50143C16.78684,14.14162,16.67311,14.01261,16.62718,13.57565Z" transform="translate(-4.35187 -6.2286)"/><path d="M6.494,9.45473a1.1862,1.1862,0,0,1,.90906.49754q.48275.642.9652,1.28431a1.03071,1.03071,0,0,1-.0823,1.18486c-.29222.3544-.54874.73861-.81385,1.11473a1.21951,1.21951,0,0,1-1.484.51543,1.41011,1.41011,0,0,1-.65558-.57268c-.24743-.31089-.48128-.63659-.70878-.96377a1.22274,1.22274,0,0,1,.18643-1.70546,1.77522,1.77522,0,0,0,.28024-.37061,5.46143,5.46143,0,0,1,.52028-.64837A1.10935,1.10935,0,0,1,6.494,9.45473Z" transform="translate(-4.35187 -6.2286)"/><path d="M12.90859,13.14608a.98587.98587,0,0,1-1.007.95391,12.09628,12.09628,0,0,1-2.02627.00071,1.18,1.18,0,0,1-.72481-.33339c-.19325-.18108-.22622-.36434-.09193-.52909a.41048.41048,0,0,1,.5683-.06647.83962.83962,0,0,0,.62806.21385c.50022-.00391,1.00068.024,1.50088-.01576a.3491.3491,0,0,0,.10746-.68271c-.61043-.25847-1.22778-.5006-1.83972-.75559a3.728,3.728,0,0,1-.61084-.29672.781.781,0,0,1-.32475-.76013.77992.77992,0,0,1,.39509-.69112,1.53145,1.53145,0,0,1,.80448-.19855c.49186.00838.984.00467,1.47595.0035a1.29018,1.29018,0,0,1,.90011.36493.37108.37108,0,0,1,.06974.5359.40362.40362,0,0,1-.56819.05667.90148.90148,0,0,0-.727-.22076c-.41288.00442-.8259-.003-1.23874.003-.1264.00186-.28384-.01353-.31379.166-.02947.17667.111.20175.2373.25378.75867.31243,1.5184.62308,2.268.95635a.93228.93228,0,0,1,.51877.829A.17269.17269,0,0,1,12.90859,13.14608Z" transform="translate(-4.35187 -6.2286)"/><path d="M6.638,16.05045c.35019,0,.646-.00191.94167.00108A.50508.50508,0,0,1,7.845,16.147a5.99361,5.99361,0,0,0,5.5604.54777,4.45826,4.45826,0,0,0,1.08786-.56735.34327.34327,0,0,1,.21593-.07884c.3045.00427.6091.00166.92881.00166A6.74183,6.74183,0,0,1,6.638,16.05045Z" transform="translate(-4.35187 -6.2286)"/><path class="cls-1" d="M8.519,8.863c0,.11384.00765.2283-.00158.3414a.37588.37588,0,0,1-.39885.3666.43656.43656,0,0,1-.45512-.3409,2.469,2.469,0,0,1-.00465-.70693.45948.45948,0,0,1,.4327-.373.38443.38443,0,0,1,.42785.39759c.00917.1043.00149.21009.00149.3152Z" transform="translate(-4.35187 -6.2286)"/><path class="cls-2" d="M4.35187,8.84631A2.73342,2.73342,0,0,1,4.37125,8.479a.36412.36412,0,0,1,.3822-.32886.363.363,0,0,1,.40965.3248,2.56783,2.56783,0,0,1,.00372.76.36391.36391,0,0,1-.42163.33908A.36749.36749,0,0,1,4.3658,9.2145a2.46126,2.46126,0,0,1-.00332-.368Z" transform="translate(-4.35187 -6.2286)"/><path class="cls-3" d="M12.90859,13.14608l.00113-.2127C13.05119,13.005,13.05025,13.07593,12.90859,13.14608Z" transform="translate(-4.35187 -6.2286)"/><path class="cls-4" d="M6.43914,10.23607a.3357.3357,0,0,1,.28016.14557q.4092.58737.82775,1.16823a.35741.35741,0,0,1,.01735.45907c-.28717.40355-.5685.8114-.86281,1.20969a.31529.31529,0,0,1-.53189-.00923,8.16006,8.16006,0,0,1-.59809-.81621,1.1248,1.1248,0,0,0-.1959-.23411.42524.42524,0,0,1-.03312-.6878c.30734-.31991.47779-.73791.7929-1.05078C6.22345,10.33316,6.28336,10.223,6.43914,10.23607Z" transform="translate(-4.35187 -6.2286)"/><polygon class="cls-5" points="12.136 5.129 11.238 4.406 10.448 4.406 9.843 4.844 9.843 6.783 10.353 7.264 11.171 7.264 12.114 6.485 12.136 5.129"/><text class="cls-6" transform="translate(0.18959 9.00461) scale(0.82156 1)"><tspan xml:space="preserve">P  r  ü  f  u  n  g  s  z  e  n  t  r  u  m</tspan></text><path d="M15.5396,7.85564c-.35011.00739-.64577.01554-.94149.0188a.50525.50525,0,0,1-.26728-.08981,5.9936,5.9936,0,0,0-5.57072-.43024,4.45834,4.45834,0,0,0-1.07565.5902.34332.34332,0,0,1-.21421.08338c-.30453.00216-.609.01119-.92864.01794A6.74183,6.74183,0,0,1,15.5396,7.85564Z" transform="translate(-4.35187 -6.2286)"/></svg>