<svg width="20" height="20" viewBox="0 0 20 20" fill="none" xmlns="http://www.w3.org/2000/svg">
<path d="M15.3564 6.57245C15.5951 4.99995 14.4864 3.58745 12.7926 3.06995C12.4921 2.97805 12.1678 3.00421 11.8858 3.1431C11.6039 3.28199 11.3855 3.52315 11.2751 3.81745L10.7314 5.26745C10.6438 5.50072 10.628 5.75482 10.6859 5.99715C10.7438 6.23947 10.8728 6.45896 11.0564 6.62745L12.6739 8.1087C12.7536 8.18187 12.813 8.27444 12.8463 8.37741C12.8796 8.48037 12.8857 8.5902 12.8639 8.6962L12.8489 8.7612L12.8101 8.9237C12.609 9.71326 12.3025 10.4722 11.8989 11.18C11.4592 11.9321 10.9137 12.617 10.2789 13.2137L10.2289 13.2587C10.1481 13.3304 10.0502 13.3799 9.9446 13.4025C9.83901 13.425 9.72938 13.4199 9.62638 13.3875L7.53513 12.7287C7.29747 12.6541 7.04293 12.6522 6.80417 12.7232C6.56542 12.7943 6.35333 12.935 6.19513 13.1275L5.20513 14.3287C4.79263 14.8287 4.84263 15.5637 5.31638 16.005C6.61263 17.2137 8.39513 17.4612 9.63513 16.465C11.1551 15.2389 12.4364 13.7436 13.4151 12.0537C14.4018 10.3651 15.0596 8.50549 15.3564 6.57245ZM11.5526 8.7787L10.2126 7.5487C9.84534 7.21187 9.58709 6.77295 9.47105 6.28829C9.35501 5.80363 9.38646 5.29535 9.56138 4.8287L10.1039 3.3787C10.326 2.78651 10.7655 2.30128 11.3329 2.02187C11.9003 1.74247 12.5528 1.68993 13.1576 1.87495C15.2614 2.5187 16.9501 4.40495 16.5926 6.7612C16.3426 8.4062 15.7664 10.4987 14.4951 12.6837C13.4392 14.5058 12.0571 16.1181 10.4176 17.4399C8.55763 18.9337 6.07513 18.4237 4.46263 16.9212C4.00124 16.4916 3.72118 15.9021 3.6796 15.2731C3.63802 14.644 3.83805 14.0228 4.23888 13.5362L5.22888 12.3337C5.54559 11.9493 5.96989 11.6683 6.44738 11.5266C6.92488 11.385 7.4338 11.3892 7.90888 11.5387L9.64513 12.085C10.0934 11.6227 10.4861 11.1097 10.8151 10.5562C11.133 9.99665 11.3807 9.40007 11.5526 8.77995V8.7787Z" fill="#9D9D9D"/>
</svg>
