<svg width="33" height="33" viewBox="0 0 33 33" fill="none" xmlns="http://www.w3.org/2000/svg">
<g clip-path="url(#clip0_148_361)">
<path fill-rule="evenodd" clip-rule="evenodd" d="M17.6457 12.4972L17.1113 12.1887C16.3735 11.7627 16.0107 10.887 16.2192 10.0339L16.7108 8.00837C17.0272 6.70839 18.4797 6.05053 19.6038 6.69953L21.2692 7.66103C21.6936 7.90603 22.0476 8.25478 22.2209 8.71858C22.6195 9.79624 23.1721 12.0852 22.3084 15.1892L17.6457 12.4972ZM13.6457 19.4254L13.3097 19.2314C12.4809 18.7529 11.4153 18.9725 10.8029 19.7471L9.5492 21.3327C8.79091 22.2921 9.03053 23.689 10.0559 24.281L11.8945 25.3425C12.4028 25.636 12.9954 25.7657 13.5631 25.5784C14.6038 25.2359 16.4372 24.3603 18.3906 22.1649L13.6457 19.4254Z" fill="#EC3A4C"/>
<path opacity="0.5" d="M16.9154 16.6943C14.9154 20.1584 13.6458 19.4254 13.6458 19.4254L18.3916 22.1654C19.1641 21.2974 19.9544 20.2225 20.7224 18.8923C21.4904 17.5621 21.9941 16.3218 22.3085 15.1892L17.6458 12.4972C17.6458 12.4972 18.9154 13.2302 16.9154 16.6943Z" fill="#EC3A4C"/>
</g>
<defs>
<clipPath id="clip0_148_361">
<rect width="24" height="24" fill="white" transform="translate(32.7847 12) rotate(120)"/>
</clipPath>
</defs>
</svg>
