<svg width="20" height="20" viewBox="0 0 20 20" fill="none" xmlns="http://www.w3.org/2000/svg">
<path d="M1.66602 18.3333H18.3327M5.29935 14.5L3.33268 14.1667L1.66602 10.8333L2.58268 10.375C2.81531 10.2578 3.07218 10.1967 3.33268 10.1967C3.59318 10.1967 3.85005 10.2578 4.08268 10.375L4.22435 10.4583C4.45698 10.5755 4.71385 10.6366 4.97435 10.6366C5.23485 10.6366 5.49172 10.5755 5.72435 10.4583L6.66602 9.99999L4.16602 4.99999L4.91602 4.62499C5.19324 4.48861 5.50292 4.43198 5.81048 4.46141C6.11803 4.49084 6.41135 4.60518 6.65768 4.79166L10.0077 7.29166C10.2549 7.47975 10.5497 7.59503 10.8589 7.62448C11.1681 7.65393 11.4794 7.59638 11.7577 7.45833L15.2493 5.74166C15.6955 5.51673 16.2096 5.46622 16.691 5.59999L17.4993 5.83333C17.6664 5.87971 17.8209 5.96272 17.9519 6.07633C18.0828 6.18994 18.1867 6.33129 18.2561 6.49011C18.3256 6.64893 18.3588 6.82123 18.3533 6.99447C18.3478 7.16772 18.3037 7.33756 18.2243 7.49166L17.9077 8.12499C17.716 8.50833 17.4077 8.82499 17.016 9.02499L6.31602 14.3333C6.00139 14.4892 5.64558 14.5417 5.29935 14.4833V14.5Z" stroke="#25262A" stroke-width="1.66667" stroke-linecap="round" stroke-linejoin="round"/>
</svg>
