<svg width="90" height="89" viewBox="0 0 90 89" fill="none" xmlns="http://www.w3.org/2000/svg">
<path d="M23.676 38.2121C10.0683 43.9812 1.50424 50.8147 2.80363 55.6641C4.63376 62.4942 25.2222 62.834 48.5446 56.4383C71.8671 50.0427 89.6005 39.7274 87.7704 32.8973C86.6241 28.4827 77.4647 26.9473 64.8897 27.8278" stroke="#EC3A4C" stroke-width="4" stroke-linecap="round" stroke-linejoin="round"/>
<path d="M72.4902 47.8625C72.0947 52.0333 70.6573 56.0378 68.3102 59.5081C65.963 62.9784 62.7814 65.8032 59.0577 67.7229C55.3339 69.6427 51.1874 70.5958 46.9991 70.4948C42.8108 70.3938 38.715 69.2418 35.0881 67.1448C32.1889 65.4724 29.6503 63.2414 27.6194 60.581M22.7676 48.4845C22.0478 42.5098 23.5073 36.476 26.8781 31.4908C30.2489 26.5056 35.3048 22.9035 41.1177 21.346C46.9305 19.7884 53.1101 20.3799 58.5219 23.0118C63.9337 25.6438 68.2146 30.1395 70.5785 35.6736" stroke="#EC3A4C" stroke-width="4" stroke-linecap="round" stroke-linejoin="round"/>
</svg>
