<svg width="24" height="24" viewBox="0 0 24 24" fill="none" xmlns="http://www.w3.org/2000/svg">
<path opacity="0.2" d="M18.9806 3.9866L18.9196 20.0739C18.9192 20.1724 18.8994 20.2698 18.8613 20.3607C18.8232 20.4516 18.7676 20.534 18.6977 20.6034C18.6277 20.6728 18.5448 20.7277 18.4536 20.765C18.3625 20.8023 18.2648 20.8213 18.1663 20.8209L5.76656 20.7672C5.56778 20.7664 5.37746 20.6867 5.23742 20.5457C5.09737 20.4046 5.01906 20.2137 5.01968 20.0149L5.08072 3.92767C5.08111 3.82915 5.1009 3.73168 5.13897 3.64081C5.17704 3.54995 5.23264 3.46747 5.30259 3.3981C5.37254 3.32872 5.45547 3.27381 5.54665 3.2365C5.63783 3.19918 5.73546 3.1802 5.83398 3.18063L18.2337 3.23427C18.4325 3.2351 18.6228 3.3148 18.7629 3.45587C18.9029 3.59693 18.9812 3.78783 18.9806 3.9866Z" fill="#1D1E22"/>
<path d="M18.2367 2.48412L5.83692 2.43048C5.43918 2.429 5.05713 2.58554 4.77479 2.86569C4.49245 3.14584 4.33294 3.52666 4.33133 3.9244L4.27028 20.0117C4.26959 20.2087 4.30774 20.404 4.38254 20.5863C4.45735 20.7686 4.56735 20.9344 4.70626 21.0742C4.84517 21.214 5.01026 21.3251 5.19211 21.401C5.37395 21.477 5.56898 21.5164 5.76605 21.5169L18.1658 21.5706C18.363 21.5714 18.5583 21.5333 18.7408 21.4586C18.9232 21.3838 19.0891 21.2738 19.229 21.1349C19.3689 20.9959 19.48 20.8308 19.556 20.6488C19.6321 20.4669 19.6715 20.2718 19.672 20.0746L19.733 3.98739C19.7339 3.58963 19.5767 3.20781 19.2961 2.9259C19.0155 2.64399 18.6344 2.48508 18.2367 2.48412ZM18.1702 20.0706L5.7695 20.0171L5.83054 3.92986L18.2303 3.9835L18.1702 20.0706ZM7.32151 6.18652C7.32254 5.98769 7.40248 5.7974 7.54376 5.65749C7.68504 5.51758 7.8761 5.4395 8.07493 5.4404L15.9764 5.47399C16.1641 5.47455 16.3448 5.5455 16.4828 5.67283C16.6208 5.80016 16.706 5.9746 16.7216 6.1617C16.7372 6.3488 16.682 6.53494 16.567 6.68335C16.452 6.83176 16.2856 6.93165 16.1005 6.96327C16.0571 6.97067 16.0132 6.97441 15.9692 6.97445L8.06763 6.93994C7.8688 6.93891 7.67851 6.85897 7.5386 6.71769C7.39869 6.57641 7.3206 6.38535 7.32151 6.18652ZM7.31093 9.1868C7.31131 9.08828 7.33111 8.9908 7.36918 8.89994C7.40724 8.80907 7.46284 8.7266 7.53279 8.65723C7.60274 8.58785 7.68568 8.53294 7.77685 8.49563C7.86803 8.45831 7.96567 8.43933 8.06418 8.43976L15.9658 8.47427C16.1546 8.47337 16.3368 8.54373 16.476 8.67129C16.6152 8.79885 16.7012 8.97422 16.7168 9.1624C16.7324 9.35057 16.6764 9.5377 16.5601 9.68641C16.4437 9.83512 16.2755 9.93447 16.0892 9.96463C16.0455 9.97224 16.0012 9.97573 15.9568 9.97504L8.05535 9.94146C7.8566 9.93998 7.66656 9.85967 7.52697 9.71817C7.38739 9.57667 7.30969 9.38555 7.31093 9.1868ZM7.29926 12.1863C7.30101 11.9879 7.38134 11.7982 7.52265 11.6589C7.66395 11.5196 7.85471 11.4419 8.05315 11.443L12.0015 11.4568C12.1891 11.4574 12.3698 11.5283 12.5077 11.6555C12.6457 11.7828 12.7309 11.9571 12.7466 12.1441C12.7623 12.3311 12.7073 12.5172 12.5925 12.6656C12.4777 12.8141 12.3115 12.9141 12.1265 12.946C12.0832 12.9534 12.0392 12.9571 11.9953 12.9571L8.04445 12.9399C7.84575 12.9386 7.65568 12.8585 7.51596 12.7173C7.37624 12.576 7.2983 12.385 7.29926 12.1863Z" fill="#1D1E22"/>
</svg>
