<svg width="24" height="24" viewBox="0 0 24 24" fill="none" xmlns="http://www.w3.org/2000/svg">
<path fill-rule="evenodd" clip-rule="evenodd" d="M20.5402 16.8071C20.6486 16.695 20.7193 16.552 20.7426 16.3979C20.7659 16.2438 20.7406 16.0862 20.6702 15.9471L19.9392 14.5061C19.1252 12.8982 17.8814 11.5473 16.3459 10.6036C14.8105 9.6599 13.0435 9.16024 11.2412 9.16011H10.8372C10.8117 8.60669 10.7787 8.05364 10.7382 7.50111L10.6702 6.56211C10.6576 6.38869 10.6001 6.22152 10.5035 6.07698C10.4068 5.93245 10.2743 5.81549 10.1188 5.73757C9.96339 5.65964 9.79038 5.62342 9.61673 5.63246C9.44309 5.6415 9.27476 5.69547 9.12825 5.78911C7.01247 7.14098 5.17312 8.88294 3.70825 10.9221L3.24825 11.5631C3.15668 11.6906 3.10742 11.8436 3.10742 12.0006C3.10742 12.1576 3.15668 12.3106 3.24825 12.4381L3.70825 13.0781C5.17302 15.1176 7.01238 16.8599 9.12825 18.2121C9.76825 18.6221 10.6142 18.1971 10.6702 17.4391L10.7382 16.4991C10.7862 15.8401 10.8242 15.1801 10.8512 14.5191C13.0346 14.4554 15.203 14.8986 17.1862 15.8141L19.6862 16.9681C19.8276 17.0334 19.9858 17.053 20.1388 17.0244C20.2918 16.9957 20.4321 16.9201 20.5402 16.8081V16.8071ZM18.3302 14.6891L17.8152 14.4521C15.394 13.3345 12.7271 12.855 10.0682 13.0591C9.88363 13.0734 9.7108 13.1554 9.58304 13.2894C9.45528 13.4235 9.38162 13.6 9.37625 13.7851C9.35025 14.6551 9.30625 15.5231 9.24225 16.3911L9.23625 16.4781C7.57168 15.3033 6.11498 13.8588 4.92625 12.2041L4.78025 12.0001L4.92625 11.7971C6.11498 10.1425 7.57168 8.69792 9.23625 7.52311L9.24225 7.61011C9.29925 8.38511 9.34025 9.16011 9.36725 9.93611C9.37373 10.1307 9.45561 10.3151 9.59556 10.4504C9.73552 10.5856 9.92259 10.6612 10.1172 10.6611H11.2412C12.6704 10.6611 14.075 11.0323 15.3176 11.7384C16.5601 12.4445 17.5989 13.4613 18.3302 14.6891Z" fill="#EC3A4C"/>
</svg>
