<svg width="24" height="24" viewBox="0 0 24 24" fill="none" xmlns="http://www.w3.org/2000/svg">
<path opacity="0.2" d="M20.9944 16.32C20.8487 17.4085 20.3127 18.407 19.486 19.1299C18.6593 19.8528 17.5982 20.2508 16.5 20.25C13.1185 20.25 9.87548 18.9067 7.48439 16.5156C5.0933 14.1245 3.75 10.8815 3.75 7.49998C3.74916 6.4018 4.1472 5.34068 4.87009 4.51398C5.59298 3.68728 6.59152 3.15126 7.68 3.0056C7.84091 2.98649 8.00368 3.02 8.14395 3.10112C8.28422 3.18224 8.39444 3.30661 8.45813 3.4556L10.4391 7.8806C10.4877 7.99426 10.5076 8.11818 10.4968 8.24134C10.486 8.36451 10.4449 8.48309 10.3772 8.58654L8.37375 10.9687C8.30268 11.076 8.26066 11.1998 8.25179 11.3281C8.24291 11.4565 8.26749 11.5849 8.32313 11.7009C9.09844 13.2881 10.7391 14.909 12.3309 15.6769C12.4475 15.7322 12.5766 15.7563 12.7053 15.7466C12.834 15.7369 12.958 15.6938 13.065 15.6215L15.4088 13.6247C15.5126 13.5556 15.6321 13.5134 15.7563 13.5021C15.8806 13.4908 16.0057 13.5107 16.1203 13.56L20.5416 15.5409C20.6913 15.6042 20.8163 15.7144 20.898 15.8549C20.9797 15.9954 21.0135 16.1586 20.9944 16.32Z" fill="#EC3A4C"/>
<path d="M14.2753 3.55593C14.3008 3.46075 14.3447 3.37151 14.4047 3.29333C14.4647 3.21514 14.5394 3.14954 14.6248 3.10026C14.7101 3.05098 14.8043 3.019 14.902 3.00614C14.9996 2.99328 15.0989 2.99979 15.1941 3.02531C16.5844 3.38807 17.853 4.11491 18.869 5.13096C19.8851 6.14702 20.6119 7.41556 20.9747 8.80593C21.0002 8.9011 21.0067 9.00036 20.9939 9.09805C20.981 9.19573 20.949 9.28993 20.8997 9.37525C20.8505 9.46057 20.7849 9.53534 20.7067 9.5953C20.6285 9.65526 20.5393 9.69922 20.4441 9.72468C20.3807 9.74132 20.3155 9.74983 20.25 9.74999C20.0847 9.74999 19.9241 9.69539 19.793 9.59469C19.662 9.49399 19.5679 9.35282 19.5253 9.19312C19.2295 8.05811 18.6363 7.02253 17.8069 6.19314C16.9775 5.36375 15.9419 4.77054 14.8069 4.47468C14.7116 4.44932 14.6223 4.40543 14.544 4.34552C14.4657 4.2856 14.4 4.21084 14.3506 4.12551C14.3013 4.04018 14.2692 3.94595 14.2563 3.84822C14.2433 3.75048 14.2498 3.65116 14.2753 3.55593ZM14.0569 7.47468C15.3497 7.81968 16.1803 8.65031 16.5253 9.94312C16.5679 10.1028 16.662 10.244 16.793 10.3447C16.9241 10.4454 17.0847 10.5 17.25 10.5C17.3155 10.4998 17.3807 10.4913 17.4441 10.4747C17.5393 10.4492 17.6285 10.4053 17.7067 10.3453C17.7849 10.2853 17.8505 10.2106 17.8997 10.1252C17.949 10.0399 17.981 9.94573 17.9939 9.84805C18.0067 9.75036 18.0002 9.6511 17.9747 9.55593C17.4947 7.75968 16.2403 6.50531 14.4441 6.02531C14.3489 5.99988 14.2497 5.99345 14.152 6.00638C14.0544 6.01932 13.9602 6.05135 13.8749 6.10067C13.7897 6.14999 13.7149 6.21562 13.655 6.29381C13.5951 6.372 13.5512 6.46123 13.5258 6.5564C13.5004 6.65157 13.4939 6.75081 13.5069 6.84846C13.5198 6.94611 13.5518 7.04026 13.6012 7.12553C13.6505 7.2108 13.7161 7.28553 13.7943 7.34543C13.8725 7.40534 13.9617 7.44926 14.0569 7.47468ZM21.7388 16.4137C21.5716 17.6841 20.9477 18.8501 19.9837 19.6941C19.0196 20.5381 17.7813 21.0023 16.5 21C9.05626 21 3.00001 14.9437 3.00001 7.49999C2.99771 6.2187 3.4619 4.98039 4.30588 4.01633C5.14986 3.05228 6.31592 2.42841 7.58626 2.26124C7.9075 2.22202 8.2328 2.28774 8.51362 2.44859C8.79444 2.60944 9.0157 2.8568 9.14438 3.15374L11.1244 7.57406V7.58531C11.2229 7.81261 11.2636 8.06077 11.2428 8.30763C11.222 8.55449 11.1404 8.79236 11.0053 8.99999C10.9884 9.02531 10.9706 9.04874 10.9519 9.07218L9.00001 11.3859C9.7022 12.8128 11.1947 14.2922 12.6403 14.9962L14.9222 13.0547C14.9446 13.0358 14.9681 13.0183 14.9925 13.0022C15.2 12.8638 15.4387 12.7793 15.687 12.7564C15.9353 12.7335 16.1854 12.7729 16.4147 12.8709L16.4269 12.8766L20.8434 14.8556C21.1409 14.9838 21.3889 15.2049 21.5503 15.4858C21.7116 15.7666 21.7778 16.0922 21.7388 16.4137ZM20.25 16.2262H20.2397L15.8334 14.2528L13.5506 16.1944C13.5285 16.2131 13.5053 16.2307 13.4813 16.2469C13.2654 16.3909 13.0159 16.4764 12.7571 16.4952C12.4983 16.5139 12.239 16.4652 12.0047 16.3537C10.2488 15.5053 8.49845 13.7681 7.64907 12.0309C7.5366 11.7983 7.48613 11.5406 7.50255 11.2827C7.51898 11.0248 7.60174 10.7755 7.74282 10.5591C7.75872 10.5336 7.77659 10.5095 7.79626 10.4869L9.75001 8.17031L7.78126 3.76406C7.78089 3.76032 7.78089 3.75655 7.78126 3.75281C6.87212 3.8714 6.03739 4.31733 5.43339 5.0071C4.8294 5.69687 4.49755 6.58316 4.50001 7.49999C4.50348 10.6815 5.76888 13.7318 8.01856 15.9814C10.2682 18.2311 13.3185 19.4965 16.5 19.5C17.4163 19.5031 18.3023 19.1725 18.9925 18.5698C19.6827 17.9671 20.1297 17.1337 20.25 16.2253V16.2262Z" fill="#EC3A4C"/>
</svg>
