<svg width="18" height="20" viewBox="0 0 18 20" fill="none" xmlns="http://www.w3.org/2000/svg">
<path d="M15.5008 19.6866C15.1457 19.6866 14.806 19.5897 14.4818 19.3959L9.40218 16.2636C9.28223 16.1921 9.14654 16.1545 9.00847 16.1545C8.8704 16.1545 8.73471 16.1921 8.61476 16.2636L3.53513 19.3959C2.90211 19.7834 2.16101 19.7834 1.52799 19.4121C0.894964 19.0407 0.524414 18.3464 0.524414 17.5876V2.70074C0.524414 1.36061 1.55887 0.278809 2.84035 0.278809H15.192C16.4735 0.278809 17.508 1.36061 17.508 2.70074V17.5876C17.5094 17.8623 17.459 18.1346 17.3596 18.3888C17.2602 18.6431 17.1137 18.8744 16.9287 19.0694C16.7437 19.2644 16.5237 19.4193 16.2813 19.5252C16.0389 19.6311 15.7789 19.6859 15.5163 19.6866H15.5008ZM9.01619 14.5198C9.41762 14.5198 9.83449 14.6328 10.1896 14.8588L15.2692 17.9912C15.4699 18.1204 15.6552 18.0397 15.7324 17.9912C15.8096 17.9428 15.964 17.8298 15.964 17.5714V2.70074C15.964 2.24865 15.6243 1.89343 15.192 1.89343H2.84035C2.40804 1.89343 2.06837 2.24865 2.06837 2.70074V17.5876C2.06837 17.8459 2.22277 17.9589 2.29997 18.0074C2.37717 18.0558 2.547 18.1365 2.76315 18.0074L7.84278 14.875C8.21333 14.6489 8.61476 14.5359 9.01619 14.5359V14.5198Z" fill="black"/>
</svg>
