<svg width="19" height="23" viewBox="0 0 19 23" fill="none" xmlns="http://www.w3.org/2000/svg">
<path d="M7.05131 11.2869C7.05131 12.0242 6.75841 12.7313 6.23705 13.2527C5.71569 13.774 5.00858 14.0669 4.27126 14.0669C3.53395 14.0669 2.82683 13.774 2.30547 13.2527C1.78411 12.7313 1.49121 12.0242 1.49121 11.2869C1.49121 10.5496 1.78411 9.84245 2.30547 9.32109C2.82683 8.79973 3.53395 8.50684 4.27126 8.50684C5.00858 8.50684 5.71569 8.79973 6.23705 9.32109C6.75841 9.84245 7.05131 10.5496 7.05131 11.2869Z" stroke="black" stroke-width="1.51639"/>
<path d="M12.6109 5.17065L7.05078 9.06272M12.6109 17.4029L7.05078 13.5108" stroke="black" stroke-width="1.51639" stroke-linecap="round"/>
<path d="M18.1724 18.5149C18.1724 19.2522 17.8795 19.9593 17.3581 20.4807C16.8368 21.002 16.1297 21.2949 15.3924 21.2949C14.655 21.2949 13.9479 21.002 13.4266 20.4807C12.9052 19.9593 12.6123 19.2522 12.6123 18.5149C12.6123 17.7776 12.9052 17.0704 13.4266 16.5491C13.9479 16.0277 14.655 15.7348 15.3924 15.7348C16.1297 15.7348 16.8368 16.0277 17.3581 16.5491C17.8795 17.0704 18.1724 17.7776 18.1724 18.5149ZM18.1724 4.05861C18.1724 4.79593 17.8795 5.50305 17.3581 6.02441C16.8368 6.54577 16.1297 6.83867 15.3924 6.83867C14.655 6.83867 13.9479 6.54577 13.4266 6.02441C12.9052 5.50305 12.6123 4.79593 12.6123 4.05861C12.6123 3.3213 12.9052 2.61418 13.4266 2.09282C13.9479 1.57146 14.655 1.27856 15.3924 1.27856C16.1297 1.27856 16.8368 1.57146 17.3581 2.09282C17.8795 2.61418 18.1724 3.3213 18.1724 4.05861Z" stroke="black" stroke-width="1.51639"/>
</svg>
