<svg width="13" height="13" viewBox="0 0 13 13" fill="none" xmlns="http://www.w3.org/2000/svg">
<path d="M4.5413 2.48764C4.98052 0.360134 8.01948 0.360132 8.4587 2.48764L8.54414 2.90153C8.70556 3.68344 9.31656 4.29444 10.0985 4.45586L10.5124 4.5413C12.6399 4.98052 12.6399 8.01948 10.5124 8.4587L10.0985 8.54414C9.31656 8.70556 8.70556 9.31656 8.54414 10.0985L8.4587 10.5124C8.01948 12.6399 4.98052 12.6399 4.5413 10.5124L4.45586 10.0985C4.29444 9.31656 3.68344 8.70556 2.90153 8.54414L2.48764 8.4587C0.360134 8.01948 0.360132 4.98052 2.48764 4.5413L2.90153 4.45586C3.68344 4.29444 4.29444 3.68344 4.45586 2.90153L4.5413 2.48764Z" fill="#D9D9D9"/>
</svg>
