<svg width="70" height="70" viewBox="0 0 70 70" fill="none" xmlns="http://www.w3.org/2000/svg">
<g clip-path="url(#clip0_870_853)">
<path d="M35 0C25.7195 0 16.8109 3.68977 10.2539 10.2512C3.69011 16.8152 0.00181819 25.7172 0 35C0 44.2788 3.69141 53.1874 10.2539 59.7488C16.8109 66.3102 25.7195 70 35 70C44.2805 70 53.1891 66.3102 59.7461 59.7488C66.3086 53.1874 70 44.2788 70 35C70 25.7212 66.3086 16.8126 59.7461 10.2512C53.1891 3.68977 44.2805 0 35 0Z" fill="url(#paint0_linear_870_853)"/>
<path d="M15.843 34.6303C26.0476 30.1853 32.8508 27.2546 36.2523 25.8387C45.9758 21.7957 47.9937 21.0935 49.3117 21.0697C49.6016 21.0651 50.2469 21.1367 50.668 21.4771C51.018 21.7643 51.1164 22.1525 51.1656 22.4252C51.2094 22.6975 51.2695 23.3182 51.2203 23.8027C50.6953 29.3371 48.4148 42.7673 47.2555 48.9661C46.7687 51.5889 45.8008 52.4683 44.8656 52.5541C42.8312 52.7412 41.2891 51.211 39.3203 49.9209C36.2414 47.9013 34.5023 46.6446 31.5109 44.6742C28.0547 42.397 30.2969 41.1452 32.2656 39.0999C32.7797 38.5645 41.7375 30.4188 41.907 29.68C41.9289 29.5876 41.9508 29.243 41.743 29.0615C41.5406 28.8794 41.2398 28.9417 41.0211 28.9909C40.7094 29.0609 35.793 32.3137 26.2555 38.7488C24.8609 39.708 23.5976 40.1756 22.4601 40.151C21.2133 40.1242 18.807 39.4445 17.0187 38.8637C14.8312 38.1511 13.0867 37.7743 13.2398 36.5641C13.3164 35.9341 14.1859 35.2893 15.843 34.6303Z" fill="white"/>
</g>
<defs>
<linearGradient id="paint0_linear_870_853" x1="3500" y1="0" x2="3500" y2="7000" gradientUnits="userSpaceOnUse">
<stop stop-color="#2AABEE"/>
<stop offset="1" stop-color="#229ED9"/>
</linearGradient>
<clipPath id="clip0_870_853">
<rect width="70" height="70" fill="white"/>
</clipPath>
</defs>
</svg>
