<svg width="24" height="24" viewBox="0 0 24 24" fill="none" xmlns="http://www.w3.org/2000/svg">
<path opacity="0.2" d="M21.75 5.25V11.25L15.75 5.25H21.75Z" fill="#EC3A4C"/>
<path d="M21.7499 4.5H15.7499C15.6015 4.49988 15.4564 4.54381 15.3329 4.62621C15.2095 4.70861 15.1133 4.82579 15.0565 4.96291C14.9996 5.10002 14.9848 5.25092 15.0138 5.39648C15.0428 5.54204 15.1143 5.67573 15.2193 5.78063L17.6896 8.25L12.7499 13.1897L9.53055 9.96938C9.4609 9.89964 9.37818 9.84432 9.28713 9.80658C9.19609 9.76884 9.09849 9.74941 8.99993 9.74941C8.90137 9.74941 8.80377 9.76884 8.71272 9.80658C8.62168 9.84432 8.53896 9.89964 8.4693 9.96938L1.7193 16.7194C1.57857 16.8601 1.49951 17.051 1.49951 17.25C1.49951 17.449 1.57857 17.6399 1.7193 17.7806C1.86003 17.9214 2.05091 18.0004 2.24993 18.0004C2.44895 18.0004 2.63982 17.9214 2.78055 17.7806L8.99993 11.5603L12.2193 14.7806C12.289 14.8504 12.3717 14.9057 12.4627 14.9434C12.5538 14.9812 12.6514 15.0006 12.7499 15.0006C12.8485 15.0006 12.9461 14.9812 13.0371 14.9434C13.1282 14.9057 13.2109 14.8504 13.2806 14.7806L18.7499 9.31031L21.2193 11.7806C21.3242 11.8856 21.4579 11.9572 21.6034 11.9861C21.749 12.0151 21.8999 12.0003 22.037 11.9435C22.1741 11.8867 22.2913 11.7904 22.3737 11.667C22.4561 11.5435 22.5 11.3984 22.4999 11.25V5.25C22.4999 5.05109 22.4209 4.86032 22.2803 4.71967C22.1396 4.57902 21.9488 4.5 21.7499 4.5ZM20.9999 9.43969L17.5602 6H20.9999V9.43969Z" fill="#EC3A4C"/>
</svg>
