<svg width="29" height="29" viewBox="0 0 29 29" fill="none" xmlns="http://www.w3.org/2000/svg">
<path fill-rule="evenodd" clip-rule="evenodd" d="M18.3024 4.56688C18.8962 4.46538 19.56 4.43154 20.1854 4.53771C21.2992 4.72586 22.3313 5.24311 23.1487 6.02288C23.6807 6.03454 24.2045 5.92954 24.6677 5.78021C25.1153 5.63422 25.5451 5.43815 25.9487 5.19571L25.9592 5.18871C26.1272 5.07677 26.3287 5.02637 26.5296 5.04605C26.7306 5.06573 26.9185 5.15427 27.0616 5.29668C27.2047 5.43908 27.2941 5.62659 27.3148 5.82741C27.3354 6.02822 27.286 6.23 27.1749 6.39854C26.9333 6.76604 26.5962 7.42171 26.2194 8.15671L26.0385 8.50788C25.8227 8.92788 25.601 9.35254 25.3945 9.71654C25.265 9.94521 25.1262 10.1774 24.9862 10.378V10.6977C25.0005 12.6095 24.634 14.5049 23.9079 16.2735C23.1818 18.042 22.1108 19.6482 20.7572 20.9984C19.4037 22.3486 17.7948 23.4156 16.0244 24.1373C14.2541 24.859 12.3577 25.2208 10.446 25.2017C7.6757 25.2042 4.96369 24.4061 2.63635 22.9034C2.47 22.7958 2.34509 22.6349 2.28205 22.4471C2.21901 22.2593 2.22157 22.0556 2.28932 21.8695C2.35707 21.6833 2.48599 21.5256 2.655 21.4222C2.824 21.3189 3.02309 21.2759 3.21969 21.3004C4.8272 21.4925 6.45646 21.2332 7.92485 20.5514C7.20844 20.2257 6.5677 19.7544 6.04345 19.1675C5.5192 18.5805 5.12292 17.8909 4.87985 17.1424C4.83354 16.9991 4.82499 16.8463 4.85503 16.6987C4.88508 16.5511 4.9527 16.4138 5.05135 16.3L5.06302 16.2884C4.4708 15.7608 3.99618 15.1145 3.66996 14.3915C3.34375 13.6685 3.17325 12.885 3.16952 12.0919V12.0312C3.16943 11.8391 3.23256 11.6523 3.34916 11.4997C3.46575 11.347 3.62934 11.237 3.81469 11.1865C3.41962 10.3983 3.21465 9.52844 3.21619 8.64671C3.21552 7.64707 3.477 6.66474 3.97452 5.79771C4.0452 5.67463 4.14477 5.57059 4.26463 5.49457C4.38448 5.41855 4.52103 5.37282 4.6625 5.36134C4.80397 5.34986 4.94611 5.37296 5.07665 5.42866C5.2072 5.48436 5.32224 5.57097 5.41185 5.68104C7.45257 8.19513 10.3762 9.83515 13.5855 10.266C13.5577 9.21626 13.8225 8.17943 14.3504 7.2716C14.8783 6.36377 15.6484 5.62075 16.5745 5.12571C17.0435 4.87604 17.6642 4.67654 18.3035 4.56688H18.3024ZM5.14469 13.3729C5.37124 14.0105 5.75945 14.5783 6.27132 15.0209C6.7832 15.4634 7.4012 15.7655 8.06485 15.8975C8.25606 15.9356 8.42906 16.0365 8.55641 16.1841C8.68377 16.3317 8.75817 16.5177 8.76782 16.7124C8.77747 16.9071 8.72181 17.0995 8.60967 17.2589C8.49754 17.4184 8.33535 17.5359 8.14885 17.5927C7.83152 17.6895 7.50602 17.756 7.17585 17.7945C7.53431 18.2569 7.99177 18.6332 8.51466 18.8956C9.03754 19.1581 9.61257 19.3001 10.1975 19.3112C10.378 19.3146 10.5529 19.3737 10.6984 19.4804C10.844 19.5871 10.953 19.7362 11.0104 19.9073C11.0679 20.0784 11.0711 20.263 11.0196 20.436C10.968 20.6089 10.8643 20.7617 10.7225 20.8734C9.50598 21.8306 8.09224 22.506 6.58319 22.8509C7.83253 23.2508 9.13657 23.4535 10.4484 23.4517H10.4589C12.1389 23.4694 13.8056 23.1522 15.3616 22.5184C16.9176 21.8847 18.3317 20.9473 19.5213 19.7608C20.7109 18.5744 21.6521 17.1628 22.2899 15.6084C22.9278 14.0541 23.2495 12.3883 23.2362 10.7082V10.084C23.236 9.87158 23.3131 9.66631 23.4532 9.50654C23.5349 9.41438 23.6749 9.20204 23.8732 8.85321C24.0599 8.52421 24.2675 8.12754 24.4834 7.70871L24.5219 7.63171C23.9124 7.76886 23.2849 7.80707 22.6634 7.74488C22.4532 7.72198 22.2584 7.62376 22.115 7.46838C21.5283 6.83217 20.747 6.4087 19.8937 6.26438C19.4633 6.2035 19.0259 6.21335 18.5987 6.29354C18.1823 6.35836 17.778 6.48539 17.3994 6.67038C16.636 7.07825 16.0295 7.72798 15.6752 8.51767C15.3209 9.30735 15.2388 10.1923 15.4417 11.0337C15.4736 11.166 15.4742 11.304 15.4435 11.4365C15.4128 11.5691 15.3516 11.6927 15.2647 11.7975C15.1778 11.9023 15.0677 11.9853 14.9431 12.0401C14.8185 12.0948 14.6828 12.1198 14.5469 12.1129C10.9624 11.9316 7.57352 10.4232 5.03969 7.88138C4.99046 8.1339 4.96584 8.3906 4.96619 8.64788V8.65021C4.96487 9.29275 5.12247 9.92564 5.42495 10.4925C5.72743 11.0594 6.16539 11.5427 6.69985 11.8994C6.8568 12.005 6.97528 12.1587 7.03754 12.3373C7.0998 12.516 7.10249 12.71 7.04519 12.8903C6.98789 13.0706 6.8737 13.2275 6.71974 13.3374C6.56577 13.4473 6.38032 13.5044 6.19119 13.5C5.83909 13.4903 5.4887 13.4485 5.14469 13.3729Z" fill="white"/>
</svg>
