<svg width="67" height="55" viewBox="0 0 67 55" fill="none" xmlns="http://www.w3.org/2000/svg">
<path d="M60.1409 13.832C60.1817 14.4229 60.1817 15.0134 60.1817 15.6096C60.1817 33.7729 46.3541 54.7208 21.0705 54.7208V54.7104C13.601 54.7208 6.28645 52.5814 0 48.5474C1.08613 48.6783 2.1775 48.7437 3.27148 48.7463C9.46224 48.7513 15.4749 46.6749 20.3434 42.8508C17.4749 42.7966 14.6951 41.8474 12.3926 40.1359C10.0901 38.4243 8.37998 36.036 7.50138 33.3049C9.56216 33.7027 11.6852 33.6205 13.7078 33.0678C7.29462 31.7723 2.68105 26.138 2.68105 19.5945V19.4202C4.5928 20.4852 6.73248 21.0753 8.9199 21.1407C2.87891 17.104 1.01809 9.0687 4.6654 2.78693C8.11637 7.0334 12.422 10.5064 17.3027 12.9805C22.1833 15.4546 27.5298 16.8743 32.9949 17.1474C32.4501 14.8018 32.5308 12.3542 33.2287 10.0495C33.9266 7.74482 35.2174 5.66374 36.972 4.01439C42.5084 -1.19015 51.2157 -0.923197 56.4198 4.61058C59.4982 4.00273 62.4504 2.87406 65.1491 1.27315C64.1229 4.45601 61.9756 7.15782 59.1066 8.87608C61.8314 8.5548 64.4924 7.82516 67 6.71166C65.1553 9.47417 62.8325 11.8854 60.1409 13.832Z" fill="#1D9BF0"/>
</svg>
