<svg width="36" height="36" viewBox="0 0 36 36" fill="none" xmlns="http://www.w3.org/2000/svg">
<path fill-rule="evenodd" clip-rule="evenodd" d="M22.5315 5.01469C23.295 4.88419 24.1485 4.84069 24.9525 4.97719C26.3846 5.2191 27.7116 5.88414 28.7625 6.88669C29.4465 6.90169 30.12 6.76669 30.7155 6.57469C31.291 6.387 31.8435 6.1349 32.3625 5.82319L32.376 5.81419C32.592 5.67028 32.8511 5.60548 33.1094 5.63078C33.3678 5.65608 33.6094 5.76992 33.7934 5.95301C33.9773 6.1361 34.0923 6.37718 34.1189 6.63538C34.1454 6.89357 34.0819 7.153 33.939 7.36969C33.6285 7.84219 33.195 8.68519 32.7105 9.63019L32.478 10.0817C32.2005 10.6217 31.9155 11.1677 31.65 11.6357C31.4835 11.9297 31.305 12.2282 31.125 12.4862V12.8972C31.1434 15.3552 30.6721 17.7922 29.7386 20.066C28.8051 22.3399 27.428 24.405 25.6878 26.141C23.9475 27.8769 21.8789 29.2488 19.6028 30.1767C17.3266 31.1045 14.8884 31.5698 12.4305 31.5452C8.86866 31.5484 5.38178 30.5223 2.38949 28.5902C2.17561 28.4519 2.01501 28.245 1.93396 28.0035C1.85291 27.7621 1.85621 27.5002 1.94331 27.2609C2.03042 27.0215 2.19617 26.8188 2.41346 26.6859C2.63076 26.553 2.88672 26.4977 3.13949 26.5292C5.20629 26.7762 7.30106 26.4428 9.18899 25.5662C8.26789 25.1475 7.44408 24.5415 6.77005 23.7869C6.09601 23.0323 5.5865 22.1455 5.27399 21.1832C5.21444 20.999 5.20345 20.8025 5.24208 20.6128C5.28071 20.423 5.36765 20.2465 5.49449 20.1002L5.50949 20.0852C4.74807 19.4068 4.13784 18.5759 3.71842 17.6464C3.29901 16.7168 3.07978 15.7095 3.07499 14.6897V14.6117C3.07488 14.3647 3.15604 14.1246 3.30595 13.9283C3.45586 13.732 3.66619 13.5906 3.90449 13.5257C3.39655 12.5122 3.13302 11.3938 3.13499 10.2602C3.13414 8.97495 3.47032 7.71195 4.10999 6.59719C4.20087 6.43895 4.32888 6.30519 4.48299 6.20744C4.63709 6.1097 4.81265 6.05091 4.99454 6.03615C5.17643 6.02139 5.35918 6.05109 5.52702 6.1227C5.69487 6.19431 5.84278 6.30568 5.95799 6.44719C8.58178 9.67959 12.3408 11.7882 16.467 12.3422C16.4312 10.9925 16.7717 9.65941 17.4504 8.4922C18.1291 7.32498 19.1192 6.36968 20.31 5.73319C20.913 5.41219 21.711 5.15569 22.533 5.01469H22.5315ZM5.61449 16.3367C5.90577 17.1565 6.4049 17.8866 7.06302 18.4556C7.72115 19.0246 8.51572 19.4129 9.36899 19.5827C9.61482 19.6317 9.83726 19.7613 10.001 19.9511C10.1647 20.1409 10.2604 20.38 10.2728 20.6303C10.2852 20.8807 10.2137 21.128 10.0695 21.3331C9.9253 21.5381 9.71678 21.6892 9.47699 21.7622C9.06899 21.8867 8.65049 21.9722 8.22599 22.0217C8.68686 22.6162 9.27503 23.0999 9.94731 23.4374C10.6196 23.7748 11.3589 23.9574 12.111 23.9717C12.343 23.9761 12.5679 24.0521 12.755 24.1893C12.9422 24.3265 13.0823 24.5182 13.1562 24.7381C13.2301 24.958 13.2342 25.1955 13.1679 25.4178C13.1017 25.6402 12.9682 25.8366 12.786 25.9802C11.2219 27.2109 9.4042 28.0792 7.46399 28.5227C9.07029 29.0368 10.7469 29.2975 12.4335 29.2952H12.447C14.607 29.318 16.7499 28.9101 18.7505 28.0953C20.7511 27.2805 22.5692 26.0752 24.0987 24.5498C25.6282 23.0243 26.8383 21.2094 27.6584 19.211C28.4785 17.2126 28.8921 15.0708 28.875 12.9107V12.1082C28.8748 11.835 28.9739 11.5711 29.154 11.3657C29.259 11.2472 29.439 10.9742 29.694 10.5257C29.934 10.1027 30.201 9.59269 30.4785 9.05419L30.528 8.95519C29.7444 9.13153 28.9376 9.18065 28.1385 9.10069C27.8683 9.07126 27.6178 8.94498 27.4335 8.74519C26.6791 7.92722 25.6746 7.38275 24.5775 7.19719C24.0242 7.11892 23.4617 7.13159 22.9125 7.23469C22.3771 7.31803 21.8573 7.48135 21.3705 7.71919C20.389 8.2436 19.6093 9.07897 19.1538 10.0943C18.6983 11.1096 18.5926 12.2474 18.8535 13.3292C18.8945 13.4993 18.8954 13.6766 18.8558 13.8471C18.8163 14.0176 18.7376 14.1765 18.6259 14.3112C18.5142 14.4459 18.3726 14.5527 18.2124 14.6231C18.0522 14.6935 17.8778 14.7255 17.703 14.7167C13.0944 14.4836 8.73728 12.5443 5.47949 9.27619C5.4162 9.60087 5.38455 9.93091 5.38499 10.2617V10.2647C5.38331 11.0908 5.58593 11.9045 5.97483 12.6334C6.36373 13.3622 6.92683 13.9836 7.61399 14.4422C7.81578 14.578 7.96812 14.7756 8.04817 15.0053C8.12822 15.2349 8.13167 15.4844 8.058 15.7162C7.98433 15.948 7.83752 16.1497 7.63956 16.2911C7.4416 16.4324 7.20317 16.5058 6.95999 16.5002C6.5073 16.4876 6.0568 16.4339 5.61449 16.3367Z" fill="#EC3A4C"/>
</svg>
