<svg width="24" height="24" viewBox="0 0 24 24" fill="none" xmlns="http://www.w3.org/2000/svg">
<path d="M15.2995 5.55011C14.5395 5.54999 13.8098 5.84824 13.2674 6.38068C12.7251 6.91313 12.4134 7.63721 12.3995 8.39711L12.3715 9.97211C12.3699 10.0567 12.3504 10.1399 12.3143 10.2164C12.2782 10.2929 12.2264 10.3609 12.1622 10.416C12.098 10.471 12.0228 10.5119 11.9417 10.5359C11.8606 10.5599 11.7754 10.5664 11.6915 10.5551L10.1305 10.3431C8.07653 10.0631 6.10853 9.11711 4.22053 7.54411C3.62253 10.8541 4.79053 13.1471 7.60353 14.9161L9.35053 16.0141C9.43354 16.0663 9.5025 16.138 9.55138 16.223C9.60026 16.308 9.62757 16.4036 9.63093 16.5016C9.63428 16.5996 9.61358 16.6969 9.57062 16.785C9.52767 16.8731 9.46378 16.9494 9.38453 17.0071L7.79253 18.1701C8.73953 18.2291 9.63853 18.1871 10.3845 18.0391C15.1025 17.0971 18.2395 13.5471 18.2395 7.69111C18.2395 7.21311 17.2275 5.55011 15.2995 5.55011ZM10.3995 8.36011C10.417 7.39616 10.7184 6.45878 11.2661 5.66534C11.8138 4.87189 12.5833 4.25763 13.4784 3.89948C14.3736 3.54133 15.3544 3.45519 16.2983 3.65186C17.2421 3.84853 18.107 4.31926 18.7845 5.00511C19.4955 5.00011 20.1005 5.18011 21.4535 4.36011C21.1185 6.00011 20.9535 6.71211 20.2395 7.69111C20.2395 15.3331 15.5425 19.0491 10.7765 20.0001C7.50853 20.6521 2.75653 19.5811 1.39453 18.1591C2.08853 18.1051 4.90853 17.8021 6.53853 16.6091C5.15953 15.7001 -0.329469 12.4701 3.27753 3.78611C4.97053 5.76311 6.68753 7.10911 8.42753 7.82311C9.58553 8.29811 9.86953 8.28811 10.4005 8.36111L10.3995 8.36011Z" fill="#8A8A8A"/>
</svg>
