<svg width="24" height="24" viewBox="0 0 24 24" fill="none" xmlns="http://www.w3.org/2000/svg">
<path opacity="0.3" d="M7.0599 5L2.3999 12L7.0699 19H21.9999V5H7.0599C7.0699 5 7.0699 5 7.0599 5ZM18.9999 10.5C19.8299 10.5 20.4999 11.17 20.4999 12C20.4999 12.83 19.8299 13.5 18.9999 13.5C18.1699 13.5 17.4999 12.83 17.4999 12C17.4999 11.17 18.1699 10.5 18.9999 10.5ZM13.9999 10.5C14.8299 10.5 15.4999 11.17 15.4999 12C15.4999 12.83 14.8299 13.5 13.9999 13.5C13.1699 13.5 12.4999 12.83 12.4999 12C12.4999 11.17 13.1699 10.5 13.9999 10.5ZM8.9999 10.5C9.8299 10.5 10.4999 11.17 10.4999 12C10.4999 12.83 9.8299 13.5 8.9999 13.5C8.1699 13.5 7.4999 12.83 7.4999 12C7.4999 11.17 8.1699 10.5 8.9999 10.5Z" fill="white"/>
<path d="M22 3H7C6.31 3 5.77 3.35 5.41 3.88L0 12L5.41 20.11C5.77 20.64 6.38 21 7.07 21H22C23.1 21 24 20.1 24 19V5C24 3.9 23.1 3 22 3ZM22 19H7.07L2.4 12L7.06 5H22V19Z" fill="white"/>
<path d="M9 13.5C9.82843 13.5 10.5 12.8284 10.5 12C10.5 11.1716 9.82843 10.5 9 10.5C8.17157 10.5 7.5 11.1716 7.5 12C7.5 12.8284 8.17157 13.5 9 13.5Z" fill="white"/>
<path d="M14 13.5C14.8284 13.5 15.5 12.8284 15.5 12C15.5 11.1716 14.8284 10.5 14 10.5C13.1716 10.5 12.5 11.1716 12.5 12C12.5 12.8284 13.1716 13.5 14 13.5Z" fill="white"/>
<path d="M19 13.5C19.8284 13.5 20.5 12.8284 20.5 12C20.5 11.1716 19.8284 10.5 19 10.5C18.1716 10.5 17.5 11.1716 17.5 12C17.5 12.8284 18.1716 13.5 19 13.5Z" fill="white"/>
</svg>
