<svg width="35" height="35" viewBox="0 0 35 35" fill="none" xmlns="http://www.w3.org/2000/svg">
<path d="M29.1654 32.0833H26.2487V29.1667C26.2487 28.0064 25.7878 26.8936 24.9673 26.0731C24.1468 25.2526 23.034 24.7917 21.8737 24.7917H13.1237C11.9634 24.7917 10.8506 25.2526 10.0301 26.0731C9.20963 26.8936 8.7487 28.0064 8.7487 29.1667V32.0833H5.83203V29.1667C5.83203 27.2328 6.60026 25.3781 7.96771 24.0107C9.33516 22.6432 11.1898 21.875 13.1237 21.875H21.8737C23.8076 21.875 25.6622 22.6432 27.0297 24.0107C28.3971 25.3781 29.1654 27.2328 29.1654 29.1667V32.0833ZM17.4987 18.9583C16.3496 18.9583 15.2118 18.732 14.1502 18.2923C13.0886 17.8526 12.124 17.208 11.3115 16.3955C10.499 15.583 9.85448 14.6184 9.41475 13.5568C8.97502 12.4952 8.7487 11.3574 8.7487 10.2083C8.7487 9.05928 8.97502 7.92146 9.41475 6.85986C9.85448 5.79826 10.499 4.83367 11.3115 4.02116C12.124 3.20865 13.0886 2.56413 14.1502 2.1244C15.2118 1.68467 16.3496 1.45834 17.4987 1.45834C19.8193 1.45834 22.0449 2.38022 23.6859 4.02116C25.3268 5.6621 26.2487 7.8877 26.2487 10.2083C26.2487 12.529 25.3268 14.7546 23.6859 16.3955C22.0449 18.0365 19.8193 18.9583 17.4987 18.9583ZM17.4987 16.0417C19.0458 16.0417 20.5295 15.4271 21.6235 14.3331C22.7175 13.2392 23.332 11.7554 23.332 10.2083C23.332 8.66125 22.7175 7.17752 21.6235 6.08355C20.5295 4.98959 19.0458 4.37501 17.4987 4.37501C15.9516 4.37501 14.4679 4.98959 13.3739 6.08355C12.2799 7.17752 11.6654 8.66125 11.6654 10.2083C11.6654 11.7554 12.2799 13.2392 13.3739 14.3331C14.4679 15.4271 15.9516 16.0417 17.4987 16.0417Z" fill="#EC3A4C"/>
</svg>
