<svg width="14" height="19" viewBox="0 0 14 19" fill="none" xmlns="http://www.w3.org/2000/svg">
<path d="M13.6654 18.3333H11.9987V16.6667C11.9987 16.0036 11.7353 15.3677 11.2665 14.8989C10.7976 14.4301 10.1617 14.1667 9.4987 14.1667H4.4987C3.83566 14.1667 3.19977 14.4301 2.73093 14.8989C2.26209 15.3677 1.9987 16.0036 1.9987 16.6667V18.3333H0.332031V16.6667C0.332031 15.5616 0.771018 14.5018 1.55242 13.7204C2.33382 12.939 3.39363 12.5 4.4987 12.5H9.4987C10.6038 12.5 11.6636 12.939 12.445 13.7204C13.2264 14.5018 13.6654 15.5616 13.6654 16.6667V18.3333ZM6.9987 10.8333C6.34209 10.8333 5.69191 10.704 5.08528 10.4527C4.47865 10.2015 3.92746 9.83316 3.46316 9.36887C2.99887 8.90458 2.63057 8.35338 2.3793 7.74675C2.12803 7.14012 1.9987 6.48994 1.9987 5.83334C1.9987 5.17673 2.12803 4.52655 2.3793 3.91992C2.63057 3.31329 2.99887 2.76209 3.46316 2.2978C3.92746 1.83351 4.47865 1.46521 5.08528 1.21394C5.69191 0.962665 6.34209 0.833336 6.9987 0.833336C8.32478 0.833336 9.59655 1.36012 10.5342 2.2978C11.4719 3.23548 11.9987 4.50725 11.9987 5.83334C11.9987 7.15942 11.4719 8.43119 10.5342 9.36887C9.59655 10.3066 8.32478 10.8333 6.9987 10.8333ZM6.9987 9.16667C7.88275 9.16667 8.7306 8.81548 9.35572 8.19036C9.98084 7.56524 10.332 6.71739 10.332 5.83334C10.332 4.94928 9.98084 4.10143 9.35572 3.47631C8.7306 2.85119 7.88275 2.5 6.9987 2.5C6.11464 2.5 5.2668 2.85119 4.64168 3.47631C4.01655 4.10143 3.66536 4.94928 3.66536 5.83334C3.66536 6.71739 4.01655 7.56524 4.64168 8.19036C5.2668 8.81548 6.11464 9.16667 6.9987 9.16667Z" fill="#9D9D9D"/>
</svg>
