<svg width="70" height="70" viewBox="0 0 70 70" fill="none" xmlns="http://www.w3.org/2000/svg">
<path d="M7.875 49.2188C5.6875 44.8438 4.375 40.0312 4.375 35C4.375 18.1562 18.1562 4.375 35 4.375V8.75C20.5625 8.75 8.75 20.5625 8.75 35C8.75 39.375 9.84375 43.3125 11.8125 47.0312L7.875 49.2188ZM61.25 35C61.25 49.4375 49.4375 61.25 35 61.25C28.6562 61.25 22.75 59.0625 18.1562 55.125L30.625 42.6562L27.5625 39.375L13.3438 53.5938C12.4688 54.4688 12.4688 55.7812 13.3438 56.6562C19.0312 62.3438 26.9062 65.625 35 65.625C51.8438 65.625 65.625 51.8438 65.625 35H61.25Z" fill="#EC3A4C"/>
<path d="M39.3742 54.6875C39.1554 54.6875 38.7179 54.6875 38.4992 54.4688C37.8429 54.25 37.1867 53.5938 37.1867 52.7188L35.6554 41.7812L40.0304 41.125L40.9054 48.3438L45.7179 44.625V32.8125C45.7179 32.1562 45.9367 31.7188 46.3742 31.2812L53.3742 24.2813C55.3429 22.3125 56.6554 19.4688 56.6554 16.625V13.125H53.3742C50.5304 13.125 47.6867 14.2188 45.7179 16.4062L38.7179 23.4062C38.2804 23.8438 37.8429 24.0625 37.1867 24.0625H25.1554L21.4367 28.875L28.6554 29.75L27.9992 34.125L17.0617 32.5938C16.1867 32.5938 15.5304 31.9375 15.3117 31.2812C15.0929 30.625 15.0929 29.75 15.5304 29.0938L22.0929 20.3438C22.7492 19.9062 23.4054 19.6875 24.0617 19.6875H36.3117L42.8742 13.125C45.7179 10.2813 49.6554 8.75 53.5929 8.75H56.8742C59.2804 8.75 61.2492 10.7188 61.2492 13.125V16.4062C61.2492 20.5625 59.7179 24.2812 56.8742 27.125L50.3117 33.6875V45.9375C50.3117 46.5938 50.0929 47.25 49.4367 47.6875L40.6867 54.25C40.2492 54.4688 39.8117 54.6875 39.3742 54.6875Z" fill="#EC3A4C"/>
</svg>
