<svg width="6" height="6" viewBox="0 0 6 6" fill="none" xmlns="http://www.w3.org/2000/svg">
<path d="M5.91209 5.48761C5.93996 5.51548 5.96207 5.54857 5.97715 5.58499C5.99224 5.6214 6 5.66043 6 5.69985C6 5.73927 5.99224 5.7783 5.97715 5.81471C5.96207 5.85113 5.93996 5.88422 5.91209 5.91209C5.88422 5.93996 5.85113 5.96207 5.81471 5.97715C5.7783 5.99224 5.73927 6 5.69985 6C5.66043 6 5.6214 5.99224 5.58499 5.97715C5.54857 5.96207 5.51548 5.93996 5.48761 5.91209L3 3.4241L0.512388 5.91209C0.456099 5.96838 0.379755 6 0.30015 6C0.220545 6 0.144201 5.96838 0.0879119 5.91209C0.0316228 5.8558 1.5692e-09 5.77945 0 5.69985C-1.5692e-09 5.62024 0.0316228 5.5439 0.0879119 5.48761L2.5759 3L0.0879119 0.512388C0.0316228 0.456099 -5.93102e-10 0.379755 0 0.30015C5.93102e-10 0.220545 0.0316228 0.144201 0.0879119 0.0879119C0.144201 0.0316228 0.220545 5.93102e-10 0.30015 0C0.379755 -5.93102e-10 0.456099 0.0316228 0.512388 0.0879119L3 2.5759L5.48761 0.0879119C5.5439 0.0316228 5.62024 -1.5692e-09 5.69985 0C5.77945 1.5692e-09 5.8558 0.0316228 5.91209 0.0879119C5.96838 0.144201 6 0.220545 6 0.30015C6 0.379755 5.96838 0.456099 5.91209 0.512388L3.4241 3L5.91209 5.48761Z" fill="white"/>
</svg>
