<svg width="95" height="67" viewBox="0 0 95 67" fill="none" xmlns="http://www.w3.org/2000/svg">
<g clip-path="url(#clip0_869_773)">
<path d="M91.9296 10.4501C91.3905 8.4303 90.3388 6.58887 88.8792 5.10923C87.4197 3.62958 85.6033 2.56335 83.6108 2.0167C76.3165 0 46.959 0 46.959 0C46.959 0 17.6002 0.0610443 10.3058 2.07774C8.31328 2.62443 6.49683 3.69072 5.03729 5.17043C3.57776 6.65014 2.52608 8.49164 1.98698 10.5116C-0.219401 23.6503 -1.07529 43.6706 2.04756 56.2837C2.58672 58.3036 3.63842 60.145 5.09795 61.6246C6.55748 63.1043 8.37391 64.1705 10.3664 64.7172C17.6607 66.7339 47.0189 66.7339 47.0189 66.7339C47.0189 66.7339 76.3767 66.7339 83.6707 64.7172C85.6632 64.1706 87.4797 63.1044 88.9393 61.6247C90.3989 60.1451 91.4507 58.3036 91.9898 56.2837C94.317 43.1264 95.0341 23.1183 91.9296 10.4501Z" fill="#FF0000"/>
<path d="M37.6152 47.6668L61.9695 33.3667L37.6152 19.0667V47.6668Z" fill="white"/>
</g>
<defs>
<clipPath id="clip0_869_773">
<rect width="94.0161" height="67" fill="white"/>
</clipPath>
</defs>
</svg>
