<svg width="27" height="20" viewBox="0 0 27 20" fill="none" xmlns="http://www.w3.org/2000/svg">
<path d="M15.7429 9.72278L11.4429 12.1799V7.26562L15.7429 9.72278Z" fill="white" stroke="white" stroke-width="1.5" stroke-linecap="round" stroke-linejoin="round"/>
<path d="M1 10.5915V8.85307C1 5.29634 1 3.51736 2.11186 2.37355C3.22495 1.22852 4.97691 1.17937 8.47958 1.07986C10.1382 1.03317 11.8336 1 13.2858 1C14.7367 1 16.4322 1.03317 18.092 1.07986C21.5946 1.17937 23.3466 1.22852 24.4585 2.37355C25.5715 3.51736 25.5715 5.29756 25.5715 8.85307V10.5915C25.5715 14.1495 25.5715 15.9272 24.4597 17.0723C23.3466 18.2161 21.5959 18.2664 18.092 18.3647C16.4334 18.4126 14.738 18.4458 13.2858 18.4458C11.6834 18.441 10.0812 18.414 8.47958 18.3647C4.97691 18.2664 3.22495 18.2173 2.11186 17.0723C1 15.9272 1 14.1482 1 10.5927V10.5915Z" stroke="white" stroke-width="1.5"/>
</svg>
