<svg width="34" height="26" viewBox="0 0 34 26" fill="none" xmlns="http://www.w3.org/2000/svg">
<path d="M20.2071 13.2892L14.6287 16.4769V10.1016L20.2071 13.2892Z" fill="white" stroke="#EC3A4C" stroke-width="2" stroke-linecap="round" stroke-linejoin="round"/>
<path d="M1.08105 14.4162V12.1609C1.08105 7.54677 1.08105 5.2389 2.52347 3.75505C3.96748 2.2696 6.24028 2.20584 10.7843 2.07674C12.936 2.01618 15.1354 1.97314 17.0194 1.97314C18.9017 1.97314 21.1012 2.01618 23.2544 2.07674C27.7984 2.20584 30.0712 2.2696 31.5136 3.75505C32.9577 5.2389 32.9577 7.54836 32.9577 12.1609V14.4162C32.9577 19.0319 32.9577 21.3382 31.5152 22.8236C30.0712 24.3075 27.8 24.3728 23.2544 24.5003C21.1027 24.5625 18.9033 24.6055 17.0194 24.6055C14.9406 24.5993 12.8621 24.5642 10.7843 24.5003C6.24028 24.3728 3.96748 24.3091 2.52347 22.8236C1.08105 21.3382 1.08105 19.0303 1.08105 14.4178V14.4162Z" stroke="#EC3A4C" stroke-width="2"/>
</svg>
